<?xml version="1.0" encoding="UTF-8" standalone="no"?>
<svg
   xmlns:dc="http://purl.org/dc/elements/1.1/"
   xmlns:cc="http://creativecommons.org/ns#"
   xmlns:rdf="http://www.w3.org/1999/02/22-rdf-syntax-ns#"
   xmlns:svg="http://www.w3.org/2000/svg"
   xmlns="http://www.w3.org/2000/svg"
   id="svg1045"
   version="1.1"
   viewBox="0 0 61.910484 47.130207"
   height="47.130207mm"
   width="61.910484mm">
  <defs
     id="defs1039" />
  <metadata
     id="metadata1042">
    <rdf:RDF>
      <cc:Work
         rdf:about="">
        <dc:format>image/svg+xml</dc:format>
        <dc:type
           rdf:resource="http://purl.org/dc/dcmitype/StillImage" />
        <dc:title></dc:title>
      </cc:Work>
    </rdf:RDF>
  </metadata>
  <g
     transform="translate(-70.263287,-127.88308)"
     id="layer1">
    <g
       transform="matrix(0.35282052,0,0,0.35282052,65.506555,98.014159)"
       id="g1604">
      <path
         style="fill:#000000;stroke-width:0.35277781"
         d="m 16.303345,217.91874 c -0.660924,-0.24675 -1.534049,-0.89669 -1.940278,-1.44432 -0.730526,-0.9848 -0.739884,-1.26818 -0.856261,-25.92917 -0.07567,-16.03444 0.02332,-26.94805 0.277352,-30.57792 1.223294,-17.47989 2.155606,-26.66903 2.787856,-27.47793 0.168307,-0.21534 0.66205,-1.58215 1.097206,-3.03735 1.464244,-4.8966 2.524683,-6.77207 4.988396,-8.8224 1.234077,-1.02701 3.350736,-2.39778 4.703688,-3.04617 1.352951,-0.64839 2.590272,-1.41182 2.749602,-1.69653 0.159329,-0.2847 0.830002,-0.61901 1.490385,-0.74289 0.660382,-0.12389 1.286084,-0.44778 1.390448,-0.71975 0.104365,-0.27197 0.415877,-0.49449 0.692249,-0.49449 0.276373,0 0.600784,-0.25613 0.720915,-0.56919 0.13436,-0.35014 0.476592,-0.50167 0.88926,-0.39376 0.463243,0.12114 0.72833,-0.0444 0.856613,-0.53496 0.120304,-0.46005 0.375687,-0.63751 0.724685,-0.50359 0.296402,0.11374 0.619854,0.0758 0.718782,-0.0842 0.3392,-0.54884 3.1131,-0.79926 3.424073,-0.30912 0.223697,0.35258 0.289618,0.35564 0.293808,0.0136 0.003,-0.24252 0.322902,-0.44096 0.710958,-0.44096 0.388055,0 0.705555,0.13674 0.705555,0.30386 0,0.16712 0.396875,0.22799 0.881945,0.13526 0.618956,-0.11832 0.881944,-0.0131 0.881944,0.35278 0,0.3659 0.262988,0.4711 0.881945,0.35278 0.656921,-0.12558 0.881944,-0.0178 0.881944,0.42251 0,0.32761 0.167174,0.4878 0.375008,0.35935 0.206254,-0.12747 0.642816,0.005 0.970139,0.29513 0.869303,0.76964 4.299298,0.40686 4.299298,-0.45471 0,-0.4615 0.403959,-0.66809 1.636737,-0.83707 3.109186,-0.42615 4.290692,-0.29443 4.544971,0.50673 0.146568,0.4618 0.425827,0.65671 0.758183,0.52917 0.28938,-0.11105 1.401152,-0.2019 2.470601,-0.2019 1.616351,0 1.974145,-0.11355 2.120428,-0.67294 0.219223,-0.8383 1.090224,-1.07999 3.914179,-1.08613 1.658041,-0.004 2.267613,0.12985 2.421195,0.53008 0.305033,0.79491 4.658643,0.31089 5.406373,-0.60106 0.688922,-0.84022 3.754826,-1.23172 5.334208,-0.68115 1.014794,0.35376 1.413066,0.28012 3.325774,-0.61494 2.894203,-1.35436 4.589191,-3.13189 6.070555,-6.36618 2.776827,-6.062685 3.661131,-7.737069 5.373596,-10.174618 2.048688,-2.916132 5.8651,-6.251367 7.53144,-6.581878 0.61957,-0.122888 1.37054,-0.544761 1.66883,-0.937494 0.43176,-0.568454 1.04321,-0.740828 2.99862,-0.845331 4.20469,-0.224713 19.18589,-0.249111 19.53747,-0.03182 0.1837,0.113528 1.46445,0.163936 2.84613,0.112018 2.18392,-0.08206 2.59031,0.0015 3.11045,0.63982 0.32908,0.40382 1.30049,0.934362 2.15869,1.178983 1.21075,0.345111 2.24055,1.129115 4.59612,3.499115 3.23934,3.259178 4.24478,4.889859 7.35989,11.936745 0.9317,2.10765 2.11873,4.45713 2.63783,5.22107 l 0.94384,1.38897 0.22474,-1.12372 c 0.42117,-2.10586 2.11287,-2.59884 8.28572,-2.41451 5.12625,0.15307 8.77102,0.67908 10.25967,1.48068 0.51875,0.27934 1.78875,0.66721 2.82223,0.86195 2.1767,0.41015 4.4954,1.42687 5.75828,2.52492 1.0193,0.88627 1.12993,2.34396 0.514,6.77235 -0.31484,2.2636 -0.28798,2.7483 0.1822,3.28873 3.84013,4.4138 3.94782,4.61509 4.81399,8.99772 l 0.39802,2.01389 2.51461,0.10278 2.51461,0.10278 v 1.23473 1.23472 l -2.24622,0.31949 -2.24622,0.31949 0.21721,3.0319 c 0.11947,1.66754 0.31855,12.56438 0.4424,24.2152 0.26756,25.17015 -0.21697,42.68491 -1.27488,46.08396 -1.09526,3.5191 -4.39981,7.21233 -7.69097,8.59559 -3.0426,1.27881 -4.54772,1.31433 -58.81522,1.38812 -29.298194,0.0398 -63.746947,0.1803 -76.552781,0.31214 -18.446556,0.18991 -23.532966,0.14651 -24.485014,-0.20892 z m 95.569745,-0.99589 c 45.7933,-0.14806 60.51298,-0.29729 61.67529,-0.62528 2.63683,-0.74409 4.80317,-2.05641 6.53364,-3.95791 3.31952,-3.64763 3.62638,-5.04033 4.07747,-18.50567 0.34303,-10.23967 0.15863,-49.71541 -0.26037,-55.73889 -0.14847,-2.1343 -0.20557,-4.07899 -0.12691,-4.32153 0.0907,-0.2796 0.8715,-0.45004 2.13377,-0.46576 1.43821,-0.0179 1.7949,-0.10895 1.28517,-0.32799 l -0.70556,-0.30318 0.70556,-0.0355 c 0.67301,-0.0339 0.67551,-0.053 0.0542,-0.41413 -0.46681,-0.27135 -0.76166,-0.26831 -1.04069,0.0107 -0.44935,0.44934 -2.59051,0.52771 -2.85213,0.10439 -0.0969,-0.15672 -0.49258,-1.83412 -0.87939,-3.72754 -0.63062,-3.08694 -0.85147,-3.60338 -2.13777,-4.99885 -0.78897,-0.85593 -1.43449,-1.70867 -1.43449,-1.89497 0,-0.18631 -0.70934,-0.84815 -1.57632,-1.47077 -1.59122,-1.14273 -1.77067,-1.73404 -0.52625,-1.73404 0.80198,0 0.9439,-0.53428 1.18128,-4.44719 0.17017,-2.80506 0.15474,-2.87355 -0.8075,-3.58497 -1.22321,-1.15933 -3.17294,-0.89958 -4.42718,-1.90509 -0.18433,-0.16131 -0.69544,-0.2933 -1.1358,-0.2933 -0.44036,0 -1.36594,-0.3175 -2.05684,-0.70556 -1.94828,-0.86941 -4.3152,-0.85268 -0.70556,-0.0929 -1.72754,0.19252 -3.34927,-0.93618 -5.00061,-1.47889 -0.68131,-0.171 -1.03251,-0.0781 -1.26319,0.33409 -0.2282,0.40777 -0.44482,0.46695 -0.75794,0.20709 -0.58396,-0.48465 -7.53655,-0.5399 -8.757,-0.0696 -0.73968,0.28504 -1.05518,0.74046 -1.36479,1.97004 -0.22149,0.87961 -0.60655,1.59929 -0.85569,1.59929 -0.72976,0 -2.765,-3.38281 -4.77554,-7.9375 -3.07008,-6.954992 -5.50486,-10.555643 -8.90699,-13.172045 -1.00766,-0.774945 -2.42743,-1.519363 -3.15504,-1.654263 -0.7276,-0.134899 -1.32534,-0.346667 -1.32831,-0.470594 -0.003,-0.123928 -0.14732,-0.449506 -0.32077,-0.723508 -0.27045,-0.427239 -0.38884,-0.424705 -0.83134,0.0178 -0.4095,0.409495 -1.05315,0.463748 -3.11882,0.262881 -1.43156,-0.139193 -5.77784,-0.365035 -9.65839,-0.501859 -3.88056,-0.136825 -7.16247,-0.31061 -7.29315,-0.386191 -0.13067,-0.07558 -1.5991,-0.03276 -3.26319,0.09515 -2.21799,0.170488 -3.02561,0.361943 -3.02561,0.717252 0,0.500793 -0.91547,0.984176 -2.49747,1.31871 -1.38972,0.293872 -5.415112,4.197569 -7.319114,7.097844 -0.935747,1.425377 -2.541253,4.509854 -3.567794,6.854393 -2.300302,5.25372 -3.978942,7.27336 -7.364314,8.86026 -1.297041,0.60799 -2.779624,1.32722 -3.294631,1.59829 -4.658874,0.842 -1.098863,0.56168 -0.475537,-0.56679 -0.120354,-0.19474 -0.605974,-0.2569 -1.079154,-0.13814 -0.524331,0.1316 -0.860323,0.0632 -0.860323,-0.17509 0,-0.21507 -0.238125,-0.39103 -0.529167,-0.39103 -0.291042,0 -0.529167,0.16945 -0.529167,0.37655 0,0.22192 -0.304048,0.28005 -0.740381,0.14157 -0.543713,-0.22987 -0.961513,2.55862 -1.028909,0.8048 -0.0042,-0.34459 -0.06799,-0.34234 -0.291761,0.0103 -0.271762,0.42826 -5.596061,1.24215 -6.097697,0.93212 -0.128694,-0.0795 -0.325014,0.0926 -0.43627,0.38253 -1.0239,1.4069 -1.015865,-0.17016 -1.405301,-0.17841 -0.343277,0 -0.45497,-0.23705 -0.332454,-0.70556 0.158566,-0.60635 0.01083,-0.70555 -1.050788,-0.70555 -0.907327,0 -1.379509,0.22009 -1.77848,0.82901 -0.469,0.71578 -0.931615,0.8614 -3.387118,1.06618 -1.56416,0.13045 -3.362046,0.34315 -3.995304,0.47269 -1.122902,0.22968 -1.129563,0.24171 -0.269427,0.48615 0.67406,0.19156 0.50775,0.24928 -0.705555,0.24488 -0.873125,-0.003 -1.27,-0.0881 -0.881945,-0.18878 l 0.705556,-0.18301 -0.705556,-0.27534 c -0.613988,-0.23961 -0.555808,-0.30802 0.448314,-0.52718 1.286263,-0.28074 1.885421,-0.86361 0.895424,-0.87109 -0.351,-0.003 -0.99537,-0.10054 -1.431932,-0.21753 -0.653267,-0.17507 -0.800993,-0.065 -0.834673,0.62218 -0.02932,0.59789 -0.08672,0.65964 -0.202258,0.21753 -0.08873,-0.33955 -0.404802,-0.61736 -0.702373,-0.61736 -0.318622,0 -0.46319,0.20288 -0.351663,0.49352 0.210157,0.54766 -2.062653,1.27037 -3.9951,1.27037 -0.64305,0 -1.008831,0.14642 -0.881295,0.35278 0.119916,0.19402 0.06689,0.35277 -0.117826,0.35277 -0.18472,0 -0.427231,-0.23812 -0.538914,-0.52916 -0.118058,-0.30766 -0.646087,-0.52917 -1.261394,-0.52917 -0.838015,0 -1.011894,-0.12102 -0.835255,-0.58133 0.180832,-0.47124 0.04841,-0.54795 -0.699211,-0.40503 -0.562808,0.10759 -0.894702,0.0248 -0.851511,-0.21242 0.03895,-0.2139 -0.286198,-0.33908 -0.722973,-0.27835 -0.436562,0.0607 -0.79375,-0.0266 -0.79375,-0.19403 0,-0.16741 -0.560426,-0.30439 -1.245391,-0.30439 -0.901458,0 -1.194848,0.13171 -1.062374,0.47693 0.100659,0.26231 0.04043,0.38881 -0.133851,0.2811 -0.374599,-0.23152 -3.240932,0.94902 -4.56627,1.88067 -0.511288,0.35941 -1.405864,0.74156 -1.987948,0.84922 -2.056877,0.38044 -2.352087,0.48179 -2.60759,0.8952 -0.141961,0.2297 -1.518329,1.02895 -3.058595,1.77611 -5.210456,2.52753 -7.346831,5.15974 -9.277605,11.43087 -0.403929,1.31196 -0.891268,2.67845 -1.082975,3.03666 -0.525668,0.98221 -1.664867,11.96707 -2.492573,24.03489 -0.653485,9.52772 -0.724333,13.28434 -0.618745,32.80834 0.06558,12.12674 0.199709,22.88574 0.29806,23.90891 0.242321,2.52092 1.111236,3.3591 3.764863,3.6317 1.11231,0.11427 9.086757,0.11594 17.720994,0.004 8.634237,-0.11223 42.765489,-0.29156 75.847231,-0.39852 z M 34.261966,122.12424 c -22.841311,116.58384 -11.420655,58.29192 0,0 z M 176.07867,110.7784 c -117.38578,124.14773 -58.69289,62.07387 0,0 z m -113.241698,5.90284 c -41.891315,120.21251 -20.945657,60.10625 0,0 z m -13.377705,-0.90815 c -32.972845,120.81794 -16.486422,60.40897 0,0 z m 19.279385,-3.46752 c -0.117228,-0.11722 -0.421499,-0.12975 -0.676159,-0.0278 -0.281421,0.11261 -0.197831,0.19621 0.213138,0.21313 0.371884,0.0153 0.580245,-0.0681 0.463021,-0.18528 z M 131.12715,85.752375 c -0.10469,-0.169399 -1.34437,-0.306093 -2.75485,-0.303763 -2.27587,0.0038 -2.38582,0.03246 -0.97699,0.255012 2.37253,0.374791 3.94605,0.395346 3.73184,0.04875 z"
         id="path1601" />
    </g>
  </g>
</svg>
