<?xml version="1.0" encoding="UTF-8"?>
<!-- Created with Inkscape (http://www.inkscape.org/) -->
<svg width="123.04mm" height="70.203mm" version="1.1" viewBox="0 0 123.04 70.203" xmlns="http://www.w3.org/2000/svg" xmlns:cc="http://creativecommons.org/ns#" xmlns:dc="http://purl.org/dc/elements/1.1/" xmlns:rdf="http://www.w3.org/1999/02/22-rdf-syntax-ns#">

 <g transform="translate(-27.366 -56.004)">
  <path d="m27.37 126.17c-0.03923-0.0635 0.24012-0.30936 0.41827-0.36815 0.0807-0.0266 0.2222-0.14053 0.31444-0.2531 0.09224-0.11257 0.24454-0.24387 0.33845-0.29178 0.0939-0.0479 0.19675-0.11844 0.22855-0.15676 0.03179-0.0383 0.1334-0.0939 0.22578-0.12349 0.10116-0.0324 0.24695-0.14282 0.36654-0.27753 0.11937-0.13447 0.30124-0.27225 0.45598-0.34546 0.14158-0.067 0.36116-0.22656 0.48795-0.35463s0.4159-0.3545 0.64245-0.50317c0.22655-0.14867 0.484-0.33671 0.5721-0.41787 0.0881-0.0812 0.20865-0.16216 0.26789-0.18 0.14967-0.0451 0.55257-0.30868 0.98218-0.64258 0.13056-0.10148 0.29514-0.2211 0.36572-0.26583 0.07058-0.0447 0.2388-0.17796 0.37382-0.29606 0.13503-0.1181 0.43252-0.3486 0.66109-0.51222 0.22858-0.16363 0.51346-0.37634 0.63307-0.47271 0.11962-0.0964 0.3205-0.2217 0.4464-0.2785 0.1259-0.0568 0.29444-0.17793 0.37453-0.26914 0.08009-0.0912 0.22359-0.19842 0.3189-0.23824 0.25571-0.10684 1.2038-0.74443 1.3892-0.93422 0.16646-0.17041 0.44752-0.38223 0.83207-0.62706 0.12305-0.0784 0.30996-0.21222 0.41537-0.29749 0.27141-0.21959 0.84717-0.62681 1.1867-0.8393 0.15887-0.0994 0.44332-0.30646 0.63211-0.46006s0.43712-0.3434 0.55185-0.42177c0.11472-0.0784 0.23658-0.17623 0.27079-0.21745 0.03421-0.0412 0.2071-0.15957 0.38419-0.263 0.1771-0.10343 0.44377-0.28255 0.59261-0.39804 0.57132-0.4433 2.4895-1.7432 2.5724-1.7432 0.02837 0 0.20243-0.11286 0.38681-0.2508s0.3785-0.26388 0.4314-0.27987c0.05289-0.016 0.13736-0.0649 0.1877-0.10875 0.10301-0.0897 1.2864-0.81525 1.5332-0.94006 0.0881-0.0446 0.22197-0.13065 0.29749-0.19133 0.07552-0.0607 0.31237-0.238 0.52633-0.39405 0.21397-0.15605 0.39594-0.29931 0.40439-0.31837 0.0084-0.019 0.16137-0.13233 0.33982-0.25173 0.17845-0.11939 0.38779-0.26349 0.4652-0.32022 0.07741-0.0567 0.21283-0.15487 0.30094-0.2181 0.0881-0.0632 0.30436-0.21911 0.48056-0.34639 0.33035-0.23863 1.4734-1.008 1.558-1.0487 0.02619-0.0126 0.12081-0.0795 0.21028-0.14875 0.08946-0.0692 0.18247-0.12586 0.20667-0.12586 0.07522 0 0.71253-0.43486 0.98089-0.66929 0.14051-0.12275 0.34213-0.27468 0.44803-0.33761 0.73578-0.43722 1.5107-0.94157 2.1799-1.4187 0.17621-0.12566 0.39246-0.26981 0.48056-0.32036 0.0881-0.0505 0.3498-0.22055 0.58155-0.3778 0.23175-0.15726 0.52009-0.34682 0.64075-0.42126 0.12066-0.0744 0.24603-0.17188 0.2786-0.21654 0.05368-0.0736 0.36414-0.27585 0.90103-0.5869 0.10913-0.0632 0.23636-0.14575 0.28273-0.18339 0.04637-0.0376 0.18213-0.11935 0.3017-0.18158 0.11957-0.0622 0.2174-0.12605 0.2174-0.14183 0-0.063 0.65854-0.5149 1.0947-0.75128 0.09289-0.0503 0.36344-0.23811 0.60121-0.41725s0.50294-0.36179 0.58927-0.40589c0.08633-0.0441 0.29895-0.18836 0.4725-0.32059 0.17355-0.13222 0.43537-0.3022 0.58183-0.37774 0.14646-0.0755 0.31485-0.17156 0.37421-0.21339 0.17418-0.12276 0.40522-0.26702 0.77156-0.48176 0.18879-0.11066 0.45889-0.30743 0.60022-0.43727 0.14133-0.12983 0.33699-0.27362 0.4348-0.31952 0.09781-0.0459 0.24421-0.1371 0.32533-0.20267 0.08113-0.0656 0.26316-0.21189 0.40452-0.32517s0.3001-0.2523 0.35276-0.30894c0.05265-0.0566 0.14414-0.10297 0.2033-0.10297 0.06592 0 0.16281-0.0629 0.25026-0.16253 0.07848-0.0894 0.20658-0.1953 0.28465-0.23536 0.18068-0.0927 0.6757-0.42536 0.94289-0.63362 0.11328-0.0883 0.26509-0.19611 0.33737-0.23959 0.07228-0.0435 0.23314-0.16431 0.35748-0.26851 0.12434-0.1042 0.38443-0.29297 0.578-0.41948 0.19356-0.12652 0.40341-0.28101 0.46634-0.34332 0.06293-0.0623 0.1968-0.15502 0.29749-0.20604 0.10069-0.051 0.27489-0.18716 0.38712-0.30251s0.22712-0.20973 0.25532-0.20973c0.0282 0 0.28013-0.18336 0.55984-0.40746 0.27971-0.22411 0.57673-0.43012 0.66004-0.45782 0.08829-0.0293 0.18441-0.10829 0.23043-0.18925 0.04343-0.0764 0.13611-0.16405 0.20596-0.19479 0.27178-0.11961 0.69614-0.42392 0.69759-0.50025 8.31e-4 -0.0435 0.05814-0.11441 0.12737-0.15764 0.06922-0.0432 0.22884-0.164 0.3547-0.26838 0.12586-0.10437 0.4039-0.33014 0.61787-0.5017 0.21396-0.17157 0.43215-0.3578 0.48486-0.41385 0.05271-0.056 0.13839-0.11542 0.19042-0.13194 0.05202-0.0165 0.1278-0.0807 0.16839-0.14265 0.04059-0.0619 0.11452-0.11264 0.16428-0.11264 0.05958 0 0.09048-0.0309 0.09048-0.0904 0-0.0558 0.05695-0.11961 0.14875-0.16675 0.13086-0.0672 0.19245-0.11636 0.39465-0.31499 0.02563-0.0252 0.12495-0.13486 0.22072-0.24376 0.09577-0.1089 0.22047-0.21652 0.27711-0.23915 0.05664-0.0226 0.10298-0.0701 0.10298-0.10551 0-0.0354 0.06694-0.11652 0.14875-0.18028 0.08181-0.0638 0.36456-0.32365 0.62834-0.57753 0.26377-0.25388 0.49504-0.4616 0.51392-0.4616 0.01888 0 0.15066-0.11821 0.29285-0.26268 0.18662-0.18963 0.28708-0.25894 0.36124-0.24922 0.08823 0.0116 0.09951-3e-3 0.07993-0.1058-0.01495-0.0782 0.0077-0.15391 0.06585-0.21991 0.04876-0.0554 0.1183-0.14458 0.15453-0.19829 0.03623-0.0537 0.18945-0.24676 0.34049-0.42899 0.29886-0.36061 0.40876-0.51562 0.4792-0.67594 0.02517-0.0573 0.07811-0.11656 0.11764-0.13173 0.07269-0.0279 0.43295-0.54794 0.43295-0.62498 0-0.0737 0.28432-0.48323 0.35404-0.50998 0.03705-0.0142 0.05672-0.0536 0.0437-0.0875-0.02362-0.0616 0.1014-0.49078 0.19256-0.66111 0.04912-0.0918 0.11566-0.84925 0.1119-1.2739-0.0018-0.20029-0.03284-0.28208-0.2086-0.54922-0.11358-0.17263-0.21901-0.36536-0.2343-0.42829-0.01528-0.0629-0.14167-0.23333-0.28086-0.37866-0.13918-0.14534-0.25306-0.29298-0.25306-0.32809 0-0.0351-0.07723-0.11094-0.17163-0.1685-0.0944-0.0576-0.3199-0.24975-0.50112-0.42709-0.44202-0.43253-0.7107-0.67079-1.0663-0.94555-0.16357-0.12637-0.31391-0.25927-0.33409-0.29533-0.02018-0.0361-0.08063-0.0656-0.13434-0.0656-0.06338 0-0.27838-0.1807-0.61265-0.51489-0.28325-0.28319-0.66036-0.65906-0.83802-0.83526-0.17766-0.17621-0.3386-0.33618-0.35764-0.35548-0.01905-0.0193-0.09033-0.0767-0.15841-0.12755-0.07151-0.0534-0.11325-0.11988-0.09884-0.15742 0.01417-0.0369-0.04608-0.1381-0.13955-0.23434-0.09213-0.0949-0.20771-0.28792-0.26275-0.43887-0.05404-0.14822-0.13816-0.29085-0.18693-0.31694-0.06413-0.0343-0.08117-0.0773-0.06159-0.15531 0.01489-0.0593 0.0061-0.12082-0.01956-0.13667-0.08597-0.0531-0.1902-0.36359-0.20197-0.60162-0.0071-0.14443-0.04919-0.29505-0.1085-0.38873-0.08839-0.13961-0.09081-0.16212-0.02779-0.2583 0.04405-0.0672 0.05663-0.14187 0.03476-0.20625-0.01886-0.0555-0.02856-0.13-0.02158-0.16559 7e-3 -0.0356-0.01295-0.11262-0.04429-0.17118-0.0471-0.088-0.04485-0.12047 0.01297-0.18703 0.07561-0.0871 0.1216-0.28608 0.16837-0.7287 0.01639-0.15511 0.06292-0.31988 0.1034-0.36615 0.04048-0.0463 0.09949-0.1665 0.13112-0.26719 0.03164-0.10069 0.07717-0.20788 0.10119-0.23819 0.04174-0.0527 0.08592-0.1307 0.30471-0.5381 0.05355-0.0997 0.09737-0.22772 0.09737-0.28444 0-0.0567 0.04055-0.12483 0.0901-0.15136 0.04956-0.0265 0.14309-0.13864 0.20786-0.24917 0.06477-0.11052 0.1478-0.21247 0.18451-0.22656 0.03671-0.0141 0.06674-0.0473 0.06674-0.0738s0.15704-0.21081 0.34898-0.40951c0.19193-0.19869 0.38357-0.40933 0.42586-0.46809 0.04228-0.0588 0.34892-0.38214 0.68141-0.71865s0.63669-0.66604 0.676-0.73229c0.03931-0.0662 0.16782-0.17828 0.28556-0.24895 0.11775-0.0707 0.26106-0.20015 0.31847-0.28773 0.05741-0.0876 0.15133-0.18062 0.20873-0.20677 0.05739-0.0262 0.14325-0.11978 0.1908-0.20807 0.05097-0.0946 0.1625-0.19919 0.27172-0.25473 0.1019-0.0518 0.26765-0.17986 0.36834-0.28455 0.10069-0.10469 0.24706-0.24214 0.32526-0.30544 0.0782-0.0633 0.17088-0.17469 0.20596-0.24751 0.03507-0.0728 0.11015-0.14356 0.16683-0.15722 0.13612-0.0328 0.50217-0.32458 0.52899-0.42169 0.01162-0.0421 0.10335-0.11844 0.20385-0.16971 0.1005-0.0513 0.30716-0.21766 0.45924-0.36974 0.15209-0.15209 0.29736-0.27653 0.32282-0.27653 0.02547 0 0.14438-0.10358 0.26425-0.23019 0.11987-0.1266 0.2706-0.24241 0.33494-0.25735 0.06435-0.0149 0.20968-0.11636 0.32296-0.22538 0.11328-0.10902 0.28834-0.23241 0.38903-0.27421 0.10069-0.0418 0.23597-0.11358 0.30062-0.1595 0.09181-0.0652 0.2227-0.0866 0.59765-0.0977 0.46654-0.0138 0.48433-0.0107 0.62969 0.11162 0.08228 0.0692 0.17265 0.12586 0.20083 0.12586 0.09426 0 0.39941 0.24035 0.40011 0.31516 0.0011 0.1123 0.1082 0.39641 0.1838 0.48735 0.08547 0.10281 0.12464 1.0001 0.04771 1.0928-0.02795 0.0337-0.04723 0.15135-0.04284 0.26149 0.0044 0.11013-0.03668 0.34441-0.09127 0.52062-0.0546 0.1762-0.08791 0.37321-0.07402 0.43779 0.01713 0.0796-0.0063 0.15756-0.07281 0.2421-0.07446 0.0947-0.09124 0.16109-0.06969 0.27594 0.02066 0.11012 0.0051 0.1812-0.0571 0.26135-0.09367 0.12065-0.14826 0.29795-0.16777 0.54488-7e-3 0.0881-0.01495 0.18638-0.01775 0.21838s-0.05619 0.0815-0.11864 0.10993c-0.08891 0.0405-0.10768 0.0751-0.08649 0.15954 0.01602 0.0638-3e-3 0.15368-0.04664 0.22028-0.04053 0.0619-0.0737 0.15054-0.0737 0.19706 0 0.0465-0.06179 0.14378-0.1373 0.21613-0.085 0.0814-0.1373 0.1778-0.1373 0.25298 0 0.1737-0.26115 0.67257-0.40949 0.78224-0.09134 0.0675-0.12013 0.1222-0.10528 0.19989 0.01437 0.0752-0.0081 0.12222-0.07565 0.15837-0.05286 0.0283-0.0961 0.0748-0.0961 0.10343 0 0.0286-0.03604 0.0919-0.08009 0.14066-0.04405 0.0488-0.08009 0.15261-0.08009 0.23076 0 0.13232-0.01417 0.14468-0.20596 0.17973-0.49029 0.0896-0.7341-0.15579-0.54431-0.54785 0.0534-0.11031 0.14492-0.23191 0.20338-0.27021s0.11922-0.1285 0.13502-0.20042c0.01579-0.0719 0.05763-0.15477 0.09296-0.18409 0.04578-0.038 0.05642-0.11033 0.03704-0.25171-0.02358-0.17206-0.01193-0.21255 0.08779-0.30496 0.14968-0.13872 0.28157-0.44848 0.21802-0.51203-0.07459-0.0746-0.05538-0.11906 0.07239-0.16764 0.09651-0.0367 0.11394-0.0663 0.09154-0.15555-0.01989-0.0792 0.0058-0.15001 0.09139-0.25171 0.06548-0.0778 0.10778-0.17085 0.09401-0.20674-0.01377-0.0359 0.02533-0.13947 0.0869-0.23019 0.12547-0.1849 0.13662-0.2599 0.05748-0.38663-0.04259-0.0682-0.04163-0.10266 0.0044-0.1581 0.03236-0.039 0.08028-0.0664 0.10647-0.0609 0.0681 0.0143 0.13194-0.24088 0.09907-0.39592-0.01531-0.0722-0.0029-0.18548 0.02758-0.25172 0.15197-0.33028 0.17763-0.41551 0.2016-0.66965 0.01424-0.15104 0.0448-0.42741 0.06789-0.61417 0.02913-0.23557 0.02662-0.36419-0.0082-0.41997-0.03711-0.0594-0.03497-0.11385 0.0082-0.20866 0.05409-0.11871 0.04879-0.13597-0.0712-0.232-0.16457-0.1317-0.21109-0.13038-0.36281 0.0102-0.06791 0.0629-0.17871 0.11442-0.24624 0.11442-0.15396 0-0.51603 0.23481-0.75721 0.49107-0.10117 0.1075-0.2196 0.19545-0.26317 0.19545-0.04357 0-0.07921 0.0216-0.07921 0.0481s-0.06694 0.0762-0.14875 0.11056c-0.08181 0.0344-0.28102 0.18777-0.44269 0.34092-0.16167 0.15316-0.31705 0.27847-0.3453 0.27847-0.02825 0-0.12989 0.10298-0.22587 0.22884-0.09706 0.12726-0.21159 0.22884-0.25804 0.22884-0.04594 0-0.09561 0.0381-0.11038 0.0846-0.01477 0.0465-0.07279 0.10641-0.12895 0.13308-0.22127 0.10509-0.97172 0.7958-0.99458 0.9154-0.01683 0.0881-0.06173 0.12981-0.16982 0.15781-0.08338 0.0216-0.29597 0.17626-0.49155 0.3576-0.18954 0.17575-0.37433 0.31954-0.41064 0.31954-0.03631 0-0.08046 0.0463-0.0981 0.10298-0.05164 0.16576-0.28177 0.42987-0.42697 0.49002-0.0778 0.0322-0.14579 0.10197-0.16188 0.16608-0.01526 0.0608-0.05838 0.11051-0.09582 0.11051s-0.11285 0.0515-0.16757 0.11442c-0.05472 0.0629-0.12417 0.11442-0.15433 0.11442-0.03017 0-0.08044 0.0618-0.11172 0.13731-0.03128 0.0755-0.08012 0.13732-0.10853 0.13735-0.02841 2e-5 -0.1066 0.0979-0.17375 0.21743-0.13139 0.23394-0.60083 0.69788-0.70616 0.69788-0.03532 0-0.06423 0.0398-0.06423 0.0884 0 0.0487-0.03604 0.10051-0.08009 0.11525-0.04405 0.0147-0.11753 0.11395-0.16328 0.22048s-0.10639 0.23488-0.13475 0.28522c-0.02836 0.0504-0.06306 0.17392-0.07711 0.27461-0.02181 0.15633-0.04178 0.18307-0.13672 0.18307-0.08662 0-0.11962 0.0324-0.14936 0.1465-0.021 0.0806-0.05845 0.15902-0.08322 0.17433-0.02477 0.0153-0.04505 0.0803-0.04505 0.14439 0 0.0641-0.05117 0.17737-0.11372 0.2517-0.10516 0.12498-0.10853 0.14307-0.04474 0.24043 0.06159 0.094 0.06145 0.11153-0.0013 0.16358-0.05635 0.0468-0.05911 0.0717-0.01396 0.12613 0.04602 0.0554 0.03676 0.0836-0.05068 0.15445-0.09487 0.0768-0.10215 0.10601-0.06432 0.25792 0.02459 0.0987 0.02626 0.24862 0.0039 0.35384-0.03046 0.14357-0.02374 0.19352 0.03148 0.23389 0.09344 0.0683 0.08905 0.18633-9e-3 0.24119-0.07377 0.0413-0.0722 0.0567 0.02288 0.22591 0.06435 0.1145 0.10206 0.25917 0.10206 0.39158 0 0.18591 0.01538 0.21794 0.13406 0.27932 0.13654 0.0706 0.21543 0.21504 0.16341 0.2992-0.01584 0.0256 0.09096 0.19575 0.23733 0.37803 0.14638 0.18229 0.32706 0.42108 0.40151 0.53065 0.07446 0.10957 0.18194 0.21692 0.23885 0.23856 0.0569 0.0216 0.12966 0.0813 0.16168 0.13255 0.03201 0.0513 0.07372 0.0932 0.09267 0.0932 0.05514 0 0.58428 0.53616 0.58428 0.59203 0 0.0279 0.05149 0.0741 0.11442 0.10281 0.06293 0.0287 0.11442 0.0675 0.11442 0.0862s0.0923 0.0882 0.20511 0.15428c0.11281 0.0661 0.22562 0.15852 0.25068 0.20534 0.02506 0.0468 0.13356 0.13678 0.24112 0.19989 0.10756 0.0631 0.27128 0.19922 0.36384 0.30246 0.09256 0.10323 0.20062 0.1877 0.24013 0.1877 0.03952 0 0.20864 0.13281 0.37583 0.29514 0.16719 0.16232 0.34511 0.30134 0.39538 0.30893 0.06375 0.01 0.11182 0.078 0.15892 0.22615 0.04471 0.14065 0.10475 0.22932 0.17779 0.2626 0.06066 0.0276 0.12924 0.1001 0.1524 0.16103 0.02317 0.0609 0.10693 0.14872 0.18614 0.19508 0.13548 0.0793 0.41066 0.42775 0.41066 0.52001 0 0.0232 0.06235 0.0882 0.13854 0.14454 0.0823 0.0608 0.12838 0.12892 0.11351 0.16768-0.01377 0.0359 0.01792 0.13805 0.07043 0.22704 0.06074 0.10295 0.08551 0.20147 0.06811 0.27083-0.01845 0.0735 0.0067 0.15672 0.07707 0.25543 0.08062 0.11302 0.10457 0.20904 0.10503 0.42102 4.55e-4 0.15104 0.01749 0.30938 0.03814 0.35188 0.02615 0.0538 0.0093 0.10143-0.05543 0.15689-0.08575 0.0734-0.08703 0.0839-0.0165 0.13552 0.06737 0.0493 0.06889 0.0701 0.01277 0.17493-0.05451 0.10185-0.05439 0.13642 8.3e-4 0.23958 0.05948 0.11114 0.0564 0.12595-0.03931 0.1895-0.09417 0.0625-0.0973 0.0762-0.03364 0.1465 0.06316 0.0698 0.0625 0.0932-0.0066 0.23385-0.09037 0.184-0.14243 0.22598-0.23579 0.19015-0.05552-0.0213-0.06302 2e-3 -0.0393 0.12027 0.02208 0.1104-0.0047 0.21857-0.10838 0.43805-0.07574 0.1603-0.16805 0.30309-0.20513 0.31733-0.08066 0.031-0.08868 0.17226-0.01401 0.24693 0.04071 0.0407 0.03527 0.0604-0.02288 0.0827-0.04197 0.0161-0.0763 0.0687-0.0763 0.11691 0 0.0497-0.05097 0.11084-0.11785 0.14131-0.06482 0.0295-0.14698 0.11002-0.18257 0.17885-0.03559 0.0688-0.10815 0.13893-0.16123 0.15578-0.07336 0.0233-0.09128 0.058-0.0747 0.14472 0.01771 0.0926-0.03717 0.17567-0.29198 0.44173-0.2294 0.23954-0.31407 0.36127-0.31483 0.45264-7.78e-4 0.0936-0.02884 0.13197-0.11163 0.15275-0.06591 0.0165-0.18889 0.13937-0.30433 0.30394-0.10655 0.1519-0.26182 0.31636-0.34505 0.36546-0.08323 0.0491-0.16392 0.12898-0.17932 0.1775-0.0154 0.0485-0.04471 0.0882-0.06513 0.0882s-0.06289 0.0622-0.09439 0.13823c-0.03149 0.076-0.12152 0.18962-0.20006 0.25242-0.07855 0.0628-0.1647 0.13168-0.19146 0.15307-0.02676 0.0214-0.09369 0.063-0.14875 0.0924-0.05505 0.0295-0.1001 0.0799-0.1001 0.11205 0 0.0762-0.23874 0.30445-0.3185 0.30445-0.03397 0-0.17359 0.12357-0.31027 0.2746-0.13668 0.15104-0.28657 0.27461-0.33309 0.27461-0.08305 0-0.27388 0.21906-0.27388 0.31439 0 0.0267-0.04634 0.0729-0.10298 0.10263-0.05664 0.0298-0.1722 0.11423-0.25681 0.18774-0.08461 0.0735-0.20303 0.15237-0.26317 0.17523-0.06013 0.0229-0.10934 0.071-0.10934 0.1069 0 0.0759-0.76046 0.76437-1.0298 0.93228-0.23827 0.14854-0.4348 0.33348-0.4348 0.40914 0 0.0331-0.02894 0.0601-0.06432 0.0601-0.06224 0-0.36455 0.22425-0.55516 0.4118-0.05123 0.0504-0.12106 0.0916-0.15517 0.0916-0.03411 0-0.21505 0.15553-0.40208 0.34562-0.18703 0.19009-0.38495 0.36503-0.43982 0.38876-0.29859 0.12916-0.70147 0.40502-0.75567 0.51742-0.03351 0.0695-0.11589 0.14705-0.18307 0.17237-0.06718 0.0253-0.23883 0.13744-0.38144 0.24917-0.14262 0.11173-0.27978 0.20315-0.30482 0.20315-0.02504 0-0.16342 0.11327-0.30751 0.25172-0.14409 0.13845-0.29993 0.25173-0.34632 0.25173-0.04639 0-0.11863 0.0523-0.16054 0.11629-0.04191 0.064-0.17111 0.17043-0.28711 0.23659-0.116 0.0661-0.26638 0.17859-0.33418 0.24984-0.06781 0.0713-0.15534 0.12956-0.19451 0.12956-0.03918 0-0.07123 0.0313-0.07123 0.0696s-0.05664 0.0936-0.12586 0.12297c-0.06922 0.0293-0.18765 0.10965-0.26317 0.17849-0.17665 0.16102-0.76276 0.57882-1.0355 0.73815-0.11643 0.068-0.22181 0.16236-0.23418 0.20967-0.01336 0.0511-0.07934 0.0974-0.16256 0.11402-0.07704 0.0154-0.21221 0.10016-0.30039 0.18834-0.08818 0.0882-0.21815 0.17484-0.28882 0.19257-0.16902 0.0424-0.61019 0.34104-0.61019 0.41302 0 0.0911-0.19149 0.19884-0.35344 0.19884-0.12743 0-0.15 0.0164-0.15 0.10881 0 0.14104-0.11958 0.24759-0.19416 0.17301-0.08716-0.0872-0.13796-0.0603-0.10842 0.0574 0.02388 0.0952 9.08e-4 0.12352-0.16667 0.2055-0.10691 0.0523-0.34613 0.23048-0.5316 0.39594l-0.33722 0.30086-0.10563-0.0992c-0.10535-0.099-0.20393-0.0898-0.20393 0.0189 0 0.0757-0.52908 0.57799-0.60882 0.57799-0.0341 0-0.15307 0.0602-0.26437 0.13376-0.1113 0.0736-0.25808 0.14766-0.32618 0.16464-0.0681 0.017-0.17419 0.0969-0.23575 0.17762-0.06156 0.0807-0.19398 0.18375-0.29427 0.22897-0.10029 0.0452-0.20486 0.13165-0.23239 0.19206-0.0384 0.0843-0.0859 0.10985-0.20412 0.10985-0.09799 0-0.18548 0.0347-0.24033 0.0953-0.04744 0.0524-0.15711 0.12492-0.2437 0.1611-0.0866 0.0362-0.18628 0.10695-0.22151 0.15726-0.03524 0.0503-0.16402 0.14211-0.28618 0.20402-0.2515 0.12744-0.52155 0.30045-0.67932 0.43522-0.05878 0.0502-0.13518 0.0913-0.16979 0.0913-0.03461 0-0.14098 0.0845-0.23639 0.18769-0.09541 0.10323-0.29705 0.24766-0.44808 0.32095-0.35046 0.17006-0.61945 0.33522-0.66438 0.40792-0.03649 0.059-0.34189 0.23563-0.55804 0.32266-0.0682 0.0275-0.13555 0.0864-0.14968 0.13088-0.01413 0.0445-0.1231 0.13613-0.24215 0.20358-0.11905 0.0675-0.32974 0.20483-0.46818 0.3053-0.13845 0.10047-0.31756 0.21158-0.39802 0.24692-0.08046 0.0353-0.23493 0.1545-0.34326 0.26481-0.19659 0.2002-0.61899 0.49267-0.71153 0.49267-0.02688 0-0.13305 0.0669-0.23592 0.14875-0.363 0.28866-0.44417 0.34101-0.93148 0.60082-0.2706 0.14427-0.49201 0.28115-0.49201 0.30418 0 0.023-0.10813 0.11358-0.24028 0.20123-0.13215 0.0876-0.37415 0.25302-0.53777 0.36749-0.16362 0.11448-0.31809 0.20928-0.34326 0.21067-0.02517 1e-3 -0.1531 0.0786-0.28428 0.17169-0.13118 0.093-0.41952 0.29124-0.64075 0.44046-0.22123 0.14921-0.48462 0.33611-0.58531 0.41532-0.10069 0.0792-0.37873 0.25872-0.61787 0.3989s-0.53064 0.33945-0.64778 0.44282-0.23334 0.18795-0.25822 0.18795c-0.02488 0-0.1247 0.0624-0.22182 0.13857-0.37095 0.29112-0.85774 0.63949-0.89357 0.63949-0.03742 0-0.29922 0.19197-0.65152 0.47776-0.10318 0.0837-0.29364 0.20539-0.42325 0.27043-0.26155 0.13124-0.64013 0.37775-0.68052 0.4431-0.01435 0.0232-0.14361 0.11937-0.28725 0.21365-0.14363 0.0943-0.35715 0.24411-0.47448 0.33293-0.11734 0.0888-0.34389 0.24245-0.50345 0.34141-0.15956 0.099-0.52475 0.3358-0.81152 0.52633-0.86429 0.57422-0.97225 0.63915-1.4084 0.84699-0.27276 0.12999-0.47625 0.26278-0.58193 0.37975-0.08938 0.0989-0.25076 0.21859-0.35862 0.26591-0.10787 0.0473-0.32198 0.19495-0.47581 0.32805-0.15383 0.13312-0.31092 0.24202-0.3491 0.24202-0.03818 0-0.09411 0.0298-0.1243 0.0661-0.03019 0.0364-0.16144 0.1328-0.29166 0.21427-0.33991 0.21267-0.83752 0.57524-1.1292 0.82279-0.13845 0.11749-0.33548 0.25565-0.43786 0.30703-0.10237 0.0514-0.21565 0.12903-0.25172 0.17254-0.0941 0.11351-0.67065 0.56833-0.72044 0.56833-0.07392 0-0.71044 0.43898-0.95375 0.65777-0.12956 0.1165-0.25462 0.21182-0.2779 0.21182-0.02328 0-0.12324 0.0612-0.22212 0.13603-0.09888 0.0748-0.20337 0.1366-0.23219 0.1373-0.02883 6.5e-4 -0.1524 0.0958-0.27461 0.21145-0.12221 0.11559-0.34577 0.27146-0.49681 0.34636-0.26022 0.12906-0.67373 0.41301-1.0058 0.69064-0.08279 0.0692-0.16118 0.12587-0.17421 0.12587-0.06244 0-0.53343 0.34867-0.69062 0.51126-0.09745 0.10079-0.26221 0.21998-0.36614 0.26486-0.10393 0.0449-0.30433 0.17695-0.44532 0.29349-0.141 0.11654-0.29214 0.21189-0.33588 0.21189-0.04373 0-0.18382 0.0912-0.31129 0.20275-0.12748 0.11151-0.28341 0.2157-0.34651 0.23155-0.06311 0.0158-0.21958 0.11799-0.34771 0.22701-0.12813 0.10903-0.35162 0.26214-0.49663 0.34027-0.14501 0.0781-0.35097 0.22969-0.45768 0.33684-0.10671 0.10714-0.297 0.25187-0.42286 0.32163-0.12586 0.0697-0.34179 0.19806-0.47983 0.28516-0.13805 0.0871-0.3646 0.183-0.50345 0.21313-0.15281 0.0332-0.35024 0.12384-0.50019 0.22973-0.13625 0.0962-0.26787 0.17494-0.29248 0.17494-0.0454 0-0.40969 0.15986-0.53534 0.23491-0.03776 0.0226-0.12701 0.0639-0.19833 0.0919-0.09441 0.0371-0.12356 0.0743-0.10717 0.13699 0.03394 0.1298-0.13614 0.22269-0.40779 0.22269-0.19248 0-0.26666 0.025-0.40802 0.1373-0.18602 0.14783-0.23063 0.16269-0.27465 0.0915zm91.971-13.387c-0.079-0.0951-0.0265-0.37973 0.09-0.48827 0.0514-0.0479 0.0934-0.10641 0.0934-0.13012 0-0.0237 0.0515-0.056 0.11442-0.0718 0.0629-0.0158 0.11442-0.0435 0.11442-0.0617 0-0.0822 0.28567-0.45278 0.365-0.47353 0.0508-0.0133 0.10076-0.0788 0.1173-0.15383 0.0495-0.22493 0.0618-0.24512 0.14893-0.24512 0.0875 0 0.60451-0.47223 0.60451-0.55213 0-0.0934 0.2331-0.39178 0.36858-0.47181 0.0893-0.0528 0.13181-0.10797 0.1156-0.1502-0.0239-0.0623 0.17218-0.29043 0.24957-0.29043 0.0186 0 0.07-0.0772 0.11418-0.17163 0.0442-0.0944 0.15978-0.2587 0.25694-0.36512 0.0971-0.10642 0.17663-0.22443 0.17663-0.26224 0-0.0783 0.31519-0.25367 0.45586-0.25367 0.10459 0 0.11962-0.047 0.0404-0.12621-0.0661-0.0661 0.0308-0.20167 0.13103-0.18333 0.0424 8e-3 0.0941-0.0695 0.14527-0.2168 0.064-0.18429 0.11224-0.24445 0.24794-0.30906 0.15167-0.0722 0.31195-0.26114 0.48093-0.5669 0.0328-0.0594 0.0901-0.10805 0.1273-0.10805s0.0811-0.036 0.0975-0.0801c0.0165-0.044 0.12909-0.17382 0.25028-0.28839 0.1286-0.12155 0.22036-0.24871 0.22036-0.30538 0-0.0704 0.0441-0.11164 0.16019-0.14996 0.0881-0.0291 0.16019-0.0821 0.16019-0.11786 0-0.10092 0.3008-0.48721 0.47845-0.61443 0.0879-0.0629 0.16035-0.12883 0.16104-0.14645 3e-3 -0.0876 0.30039-0.46012 0.39568-0.49635 0.0663-0.0252 0.10903-0.0785 0.10903-0.13608 0-0.0521 0.0898-0.19158 0.19956-0.31007s0.22376-0.26178 0.25333-0.31842c0.0325-0.0622 0.0962-0.10297 0.16098-0.10297 0.12941 0 0.17931-0.0573 0.25923-0.2975 0.0335-0.10069 0.0905-0.20802 0.12658-0.23852 0.0361-0.0305 0.0893-0.10258 0.11812-0.16019 0.0328-0.0655 0.0947-0.10547 0.16528-0.10668 0.0825-1e-3 0.11074-0.0253 0.10502-0.0889-4e-3 -0.0478 0.0317-0.13726 0.0801-0.19874 0.0483-0.0615 0.0882-0.13473 0.0886-0.16281 5.2e-4 -0.0281 0.10231-0.13341 0.22656-0.2341 0.13372-0.10836 0.22684-0.22138 0.22819-0.27693 2e-3 -0.0652 0.0667-0.12515 0.21311-0.19629 0.16818-0.0817 0.206-0.12089 0.18697-0.19369-0.0164-0.0627 0.0107-0.11394 0.0867-0.16368 0.0608-0.0398 0.11052-0.0988 0.11052-0.13113 0-0.0323 0.11214-0.20203 0.24921-0.3772 0.13706-0.17517 0.26249-0.37142 0.27872-0.43611 0.0362-0.14436 0.14127-0.2398 0.30734-0.27926 0.0692-0.0164 0.12606-0.0553 0.12631-0.0862 5.1e-4 -0.031 0.0709-0.14502 0.15711-0.2534 0.0862-0.10839 0.16948-0.25541 0.18514-0.32671 0.0157-0.0713 0.0885-0.18857 0.16199-0.26061 0.0821-0.0806 0.13401-0.17941 0.13479-0.25684 7.8e-4 -0.074 0.0265-0.12586 0.0626-0.12586 0.0337 0 0.0848-0.0515 0.11343-0.11442 0.0287-0.0629 0.0707-0.11442 0.0934-0.11442s0.0645-0.092 0.0928-0.2045c0.0292-0.11612 0.0896-0.2249 0.13964-0.25168 0.0485-0.0259 0.10088-0.0873 0.11646-0.13642 0.0156-0.0491 0.067-0.10152 0.11434-0.11654 0.0473-0.015 0.0988-0.0856 0.11446-0.15678 0.0299-0.13618 0.15717-0.27519 0.33693-0.36802 0.0772-0.0399 0.10032-0.0821 0.0824-0.15045-0.0183-0.07 0.0227-0.13853 0.15587-0.26025 0.0994-0.0909 0.18073-0.18854 0.18073-0.21708 0-0.0285 0.0721-0.13815 0.16019-0.24361 0.0881-0.10545 0.16019-0.23757 0.16019-0.29358 0-0.056 0.0717-0.18564 0.15938-0.28805 0.0876-0.10241 0.17982-0.23999 0.20482-0.30573 0.025-0.0657 0.0769-0.11953 0.11523-0.11953 0.0388 0 0.0698-0.0398 0.0698-0.0897 0-0.0493 0.0482-0.13686 0.10703-0.19451 0.0589-0.0577 0.14435-0.20631 0.18995-0.33034 0.0873-0.23731 0.17497-0.38106 0.4363-0.71516 0.16369-0.20927 0.24031-0.33106 0.35842-0.56968 0.0374-0.0755 0.0925-0.15214 0.12242-0.17028 0.0781-0.0473 0.52507-0.83385 0.52507-0.92404 0-0.0416 0.0309-0.0875 0.0687-0.10198 0.0378-0.0145 0.069-0.0602 0.0695-0.10154 1e-3 -0.0917 0.22933-0.43542 0.38511-0.57979 0.0626-0.058 0.12825-0.16386 0.14593-0.23523 0.0177-0.0714 0.07-0.15668 0.11627-0.18957 0.0463-0.0329 0.0841-0.0879 0.0841-0.12235 0-0.0344 0.0515-0.12374 0.11442-0.19853 0.0629-0.0748 0.11442-0.15597 0.11442-0.18041 0-0.0244 0.0384-0.0935 0.0853-0.15358 0.0469-0.06 0.16334-0.25847 0.25871-0.44097 0.0954-0.1825 0.18862-0.33182 0.20721-0.33182 0.0186 0 0.0464-0.0501 0.0618-0.11138 0.0154-0.0613 0.0902-0.15571 0.16631-0.2099 0.1102-0.0785 0.13636-0.12831 0.12851-0.24487-0.0114-0.16915 0.15608-0.42867 0.31645-0.49039 0.0668-0.0257 0.10298-0.0779 0.10298-0.14831 0-0.0598 0.0575-0.18901 0.12774-0.28718 0.0703-0.0982 0.15347-0.26603 0.18492-0.37301 0.0314-0.10699 0.0754-0.19452 0.0976-0.19452 0.11618 0 0.32048-0.25093 0.39362-0.48347 0.0438-0.13933 0.14662-0.36043 0.22843-0.49135 0.0818-0.13091 0.19357-0.32512 0.24836-0.43157 0.0548-0.10644 0.15977-0.25794 0.23331-0.33666 0.0735-0.0787 0.13369-0.16235 0.13369-0.18586 0-0.0861 0.18914-0.41045 0.25379-0.43526 0.0366-0.0141 0.067-0.0594 0.0676-0.10075 5.2e-4 -0.0414 0.0413-0.12669 0.0905-0.18962 0.0492-0.0629 0.09-0.16173 0.0905-0.21956 6.5e-4 -0.0622 0.0851-0.1904 0.20697-0.31405 0.11328-0.1149 0.20596-0.24622 0.20596-0.29182s0.0566-0.15002 0.12586-0.23204c0.0692-0.082 0.14646-0.23293 0.17163-0.33533 0.0295-0.12008 0.0814-0.20185 0.14624-0.23029 0.0553-0.0243 0.11307-0.0943 0.12847-0.15567 0.0154-0.0614 0.1007-0.2003 0.18956-0.30874 0.1824-0.22259 0.33667-0.50418 0.33667-0.61451 0-0.0406 0.0534-0.12381 0.11877-0.18484 0.0653-0.061 0.15049-0.17274 0.18927-0.24826 0.0388-0.0755 0.0986-0.15377 0.13296-0.1739 0.0344-0.0201 0.0624-0.0866 0.0624-0.14769 0-0.066 0.0435-0.13961 0.10729-0.18139 0.059-0.0387 0.13571-0.15757 0.17046-0.26422 0.0347-0.10666 0.15123-0.31041 0.25885-0.45279 0.10763-0.14237 0.19649-0.28654 0.19747-0.32037 9e-4 -0.0338 0.0732-0.17479 0.16048-0.31324 0.0873-0.13845 0.1946-0.31221 0.23849-0.38615 0.0439-0.0739 0.12615-0.18299 0.18279-0.24236 0.0566-0.0594 0.10298-0.12869 0.10298-0.15406 0-0.0254 0.0515-0.12188 0.11442-0.2145 0.0629-0.0926 0.11442-0.18442 0.11442-0.20402 0-0.0609 0.46137-0.78235 0.59288-0.92712 0.0686-0.0755 0.16141-0.21969 0.20625-0.32038 0.0448-0.10069 0.14777-0.28605 0.22873-0.41191 0.081-0.12586 0.15921-0.26228 0.17388-0.30315 0.0147-0.0409 0.12284-0.21476 0.24036-0.38642 0.11753-0.17167 0.30777-0.48836 0.42276-0.70375 0.11499-0.2154 0.24813-0.44312 0.29587-0.50605 0.15715-0.2072 0.30104-0.44648 0.3343-0.55594 0.018-0.0592 0.0697-0.14889 0.1149-0.19923 0.0452-0.0504 0.15418-0.24032 0.24219-0.42216 0.088-0.18184 0.20314-0.38542 0.25583-0.45241 0.0527-0.067 0.0958-0.14532 0.0958-0.17409 0-0.0288 0.10297-0.19533 0.22883-0.37015 0.12587-0.17482 0.22884-0.34259 0.22884-0.37282 0-0.0302 0.0476-0.11317 0.10579-0.18433 0.188-0.22992 0.53796-0.8924 1.2047-2.2805 0.14509-0.30207 0.33095-0.66812 0.41304-0.81345 0.0821-0.14534 0.22145-0.44397 0.3097-0.66364 0.0882-0.21967 0.20237-0.48098 0.2536-0.5807 0.0512-0.0997 0.0933-0.22329 0.0934-0.27461 0-0.0513 0.0279-0.14616 0.0616-0.21077 0.0845-0.16184 0.13725-0.36655 0.12536-0.48613-5e-3 -0.0551 0.0264-0.15567 0.0709-0.22351 0.0445-0.0679 0.076-0.18639 0.0702-0.26342-6e-3 -0.077 0.0118-0.24836 0.0393-0.38072 0.0372-0.17907 0.0363-0.26611-3e-3 -0.34014-0.0491-0.0917-0.0735-0.0966-0.31173-0.062-0.14216 0.0206-0.38205 0.0408-0.53308 0.0449-0.47606 0.0129-0.95854 0.0764-1.0298 0.13543-0.0378 0.0313-0.27461 0.11346-0.52633 0.1826-0.25173 0.0691-0.52837 0.16589-0.61476 0.21501-0.0864 0.0491-0.25116 0.12083-0.36614 0.15936-0.11499 0.0385-0.23997 0.0945-0.27772 0.12441-0.0998 0.079-0.4805 0.25648-0.55021 0.25648-0.0328 0-0.14381 0.049-0.24671 0.10881-0.10291 0.0599-0.29845 0.13241-0.43454 0.16125-0.1361 0.0288-0.26997 0.0825-0.2975 0.11919-0.12969 0.17304-0.91875 0.57188-1.1314 0.57188-0.0723 0-0.13149 0.0181-0.13149 0.0402 0 0.0703-0.44423 0.50899-0.51544 0.50899-0.0376 0-0.095 0.0321-0.12751 0.0713-0.0325 0.0392-0.12259 0.10236-0.20012 0.14034-0.0775 0.038-0.23284 0.11917-0.34516 0.18043-0.11231 0.0613-0.25374 0.11138-0.31428 0.11138-0.0667 0-0.17666 0.0677-0.27893 0.17163-0.0929 0.0944-0.28986 0.23342-0.43777 0.30893-0.14792 0.0755-0.34242 0.21667-0.43223 0.31367-0.0898 0.097-0.23538 0.21611-0.32348 0.26471s-0.24414 0.1443-0.34675 0.21267c-0.10261 0.0684-0.26298 0.17314-0.35639 0.23281-0.0934 0.0597-0.19892 0.1781-0.23446 0.26317-0.0568 0.13581-0.0851 0.15466-0.23231 0.15466-0.19021 0-0.59846 0.23329-0.9037 0.51641-0.10267 0.0952-0.21101 0.1638-0.24076 0.15238-0.0297-0.0114-0.13294 0.06-0.22931 0.15868-0.0964 0.0987-0.1941 0.17943-0.21719 0.17943-0.0641 0-0.43176 0.23428-0.61915 0.39454-0.0919 0.0786-0.27438 0.19694-0.40564 0.2631-0.13125 0.0662-0.25995 0.16012-0.286 0.20879-0.026 0.0487-0.0937 0.10243-0.15039 0.11946-0.0567 0.017-0.17511 0.0994-0.26321 0.18308-0.0881 0.0837-0.21706 0.1661-0.28656 0.18319-0.0695 0.0171-0.16873 0.0905-0.22052 0.16327-0.0518 0.0727-0.11635 0.13222-0.1435 0.13222-0.066 0-0.50659 0.29434-0.58864 0.39328-0.0358 0.0432-0.13284 0.10686-0.21554 0.14143-0.0827 0.0346-0.16973 0.11377-0.19338 0.17599-0.0266 0.0699-0.0791 0.11312-0.13752 0.11312-0.052 0-0.17091 0.0805-0.2643 0.17895-0.11648 0.12277-0.31118 0.24107-0.62012 0.37681-0.26452 0.11621-0.46984 0.23594-0.4976 0.29017-0.026 0.0508-0.0942 0.1438-0.15164 0.20674-0.0574 0.0629-0.11184 0.15561-0.12096 0.20595-0.0127 0.0703-0.0536 0.0921-0.17608 0.0938-0.11002 2e-3 -0.25418 0.0654-0.46469 0.20595-0.16785 0.11203-0.42244 0.27469-0.56576 0.36147-0.1433 0.0868-0.28217 0.2052-0.30858 0.26316-0.0345 0.0757-0.0865 0.10539-0.1843 0.10539-0.0942 0-0.19454 0.0537-0.32477 0.17374-0.11299 0.10416-0.3603 0.24623-0.61744 0.35471-0.3601 0.15191-0.44049 0.20506-0.50086 0.33113-0.0396 0.0826-0.11734 0.16157-0.17285 0.1755-0.0555 0.0139-0.11126 0.0648-0.12387 0.113-0.0173 0.0664-0.0639 0.0877-0.19162 0.0877-0.0975 0-0.21621 0.0374-0.28137 0.0886-0.062 0.0487-0.24624 0.13307-0.40949 0.1874-0.35915 0.11952-0.89718 0.39394-0.94786 0.48346-0.0439 0.0775-0.3643 0.2474-0.46667 0.2474-0.0398 0-0.15303 0.0412-0.25172 0.0915-0.0987 0.0503-0.21655 0.0915-0.26193 0.0915-0.0454 0-0.10284 0.0452-0.12769 0.10043-0.0248 0.0552-0.10239 0.1154-0.17232 0.13369-0.0699 0.0183-0.19937 0.0967-0.28764 0.17417-0.0883 0.0775-0.19976 0.14092-0.24774 0.14092-0.048 0-0.0996 0.0199-0.11461 0.0443-0.015 0.0243-0.0872 0.0323-0.16025 0.0177-0.10473-0.0209-0.15641-1e-3 -0.24376 0.093-0.061 0.0658-0.12612 0.11962-0.14477 0.11962-0.0187 0-0.0951 0.0515-0.16989 0.11442-0.0822 0.0692-0.19339 0.11453-0.28121 0.1147-0.0799 1.3e-4 -0.20703 0.0332-0.28254 0.0734-0.0755 0.0402-0.25058 0.0792-0.38903 0.0866-0.13845 7e-3 -0.3547 0.0498-0.48057 0.0943-0.4194 0.14809-0.85896 0.15128-1.529 0.0111-0.70027-0.14654-0.96643-0.13045-1.3584 0.0821-0.50908 0.27602-0.54252 0.29236-0.59891 0.29266-0.0295 1.3e-4 -0.14965 0.0735-0.26691 0.16302-0.11727 0.0895-0.26301 0.18168-0.32388 0.20483-0.0609 0.0231-0.11068 0.0786-0.11068 0.12327 0 0.0447-0.0609 0.14299-0.1354 0.21853-0.0745 0.0755-0.20989 0.21302-0.30093 0.30553-0.091 0.0925-0.18374 0.18519-0.20601 0.20596-0.0223 0.0208-0.13355 0.13044-0.24729 0.24371-0.11374 0.11328-0.27418 0.27049-0.35655 0.34937-0.0824 0.0789-0.20123 0.2099-0.26416 0.29117-0.0629 0.0813-0.17106 0.16807-0.24029 0.19289-0.0769 0.0276-0.12586 0.0787-0.12586 0.13153 0 0.05-0.0765 0.13706-0.18161 0.20659-0.0999 0.0661-0.19411 0.15957-0.20939 0.2077-0.0302 0.0952-0.4612 0.4057-0.56311 0.4057-0.0346 0-0.17901 0.0603-0.32098 0.1341-0.37036 0.19239-0.79845 0.21942-1.1329 0.0715-0.36534-0.16157-0.60494-0.37643-0.75836-0.68006l-0.13566-0.26848-0.18978 0.0303c-0.10437 0.0167-0.22724 0.0706-0.27304 0.11974-0.0521 0.0559-0.14351 0.0894-0.24402 0.0894-0.14045 0-0.1692 0.0202-0.22767 0.16018-0.0422 0.10104-0.0981 0.16019-0.15141 0.16019-0.0888 0-0.48616 0.1912-0.70937 0.34133-0.0723 0.0486-0.19871 0.0865-0.28094 0.0842-0.13257-4e-3 -0.15739 0.0158-0.2191 0.17291-0.0489 0.12439-0.11853 0.20049-0.23394 0.25553-0.0904 0.0431-0.16436 0.0927-0.16436 0.11023 0 0.0855-0.34336 0.28554-0.48128 0.28035-0.0946-4e-3 -0.17764 0.027-0.22958 0.0844-0.0448 0.0495-0.10751 0.0899-0.13943 0.0899-0.0319 0-0.11644 0.0491-0.18781 0.10919-0.0714 0.0601-0.20484 0.14055-0.29659 0.17889-0.0918 0.0383-0.1792 0.10867-0.19432 0.1563-0.0283 0.0892-0.25977 0.19637-0.42398 0.19637-0.0511 0-0.14024 0.0618-0.19811 0.13731-0.0683 0.0891-0.14698 0.13781-0.22424 0.13876-0.14628 2e-3 -0.26275 0.0855-0.28609 0.20564-0.0149 0.0768-0.0572 0.0911-0.28156 0.0953-0.18424 3e-3 -0.28078 0.0271-0.31959 0.0783-0.0306 0.0404-0.15474 0.0952-0.2759 0.12182-0.12116 0.0266-0.26533 0.0777-0.32037 0.11356-0.055 0.0358-0.26094 0.0796-0.45755 0.0973-0.32238 0.0289-0.37049 0.0225-0.49015-0.066-0.073-0.054-0.17013-0.0981-0.21589-0.0981-0.11227 0-0.28665-0.12688-0.28665-0.20856 0-0.0363-0.0421-0.11239-0.0937-0.16903-0.0515-0.0566-0.12081-0.13387-0.154-0.17163-0.0332-0.0378-0.0743-0.14589-0.0915-0.24028-0.0171-0.0944-0.0502-0.17163-0.0735-0.17163-0.0971 0-0.54066 0.22473-0.59934 0.30365-0.0981 0.13198-0.5772 0.47492-0.74082 0.53032-0.0806 0.0273-0.2012 0.0877-0.26802 0.13416-0.0668 0.0465-0.14953 0.0845-0.18381 0.0845-0.0343 0-0.17494 0.10298-0.31257 0.22884-0.13762 0.12586-0.26819 0.22884-0.29016 0.22884-0.022 0-0.11794 0.0618-0.21329 0.13731-0.0954 0.0755-0.1953 0.1373-0.22213 0.1373-0.0268 0-0.096 0.0506-0.1536 0.1125-0.10749 0.11536-0.37093 0.27673-0.70621 0.4326-0.10421 0.0484-0.20326 0.11038-0.2201 0.13763-0.0168 0.0273-0.0681 0.0496-0.11386 0.0496-0.0458 0-0.10769 0.0295-0.13759 0.0655s-0.11607 0.0637-0.19147 0.0616c-0.10427-3e-3 -0.16957 0.0355-0.27269 0.16059-0.14241 0.17277-0.27484 0.24015-0.43597 0.22185-0.05311-6e-3 -0.15748 0.0403-0.23192 0.10291-0.07444 0.0626-0.19329 0.12842-0.2641 0.1462-0.07082 0.0178-0.13854 0.0697-0.1505 0.11545-0.01249 0.0478-0.11215 0.1168-0.23431 0.1623-0.11691 0.0435-0.27078 0.12679-0.34194 0.18501-0.07115 0.0582-0.1694 0.10585-0.21831 0.10585-0.09166 0-0.42371 0.18977-0.47376 0.27075-0.01551 0.0251-0.05884 0.0339-0.09629 0.0195s-0.16552 0.0152-0.28458 0.0658c-0.19896 0.0845-0.41603 0.0996-0.88546 0.0618-0.129-0.0104-0.63541-0.51591-0.63541-0.63431 0-0.0603-0.03485-0.11923-0.08009-0.13536-0.16116-0.0574-0.18528-0.10312-0.14727-0.2788 0.02027-0.0937 0.06281-0.29391 0.09452-0.44495 0.04948-0.23563 0.09181-0.30871 0.29822-0.51489 0.1323-0.13215 0.27418-0.24028 0.31528-0.24028 0.05015 0 0.06653-0.0263 0.0498-0.0801-0.03338-0.10726 0.01777-0.17901 0.16844-0.23629 0.08989-0.0342 0.12493-0.0795 0.12493-0.16144 0-0.17131 0.14486-0.22905 0.2894-0.11535 0.085 0.0669 0.1252 0.0766 0.15001 0.0365 0.02013-0.0326-0.0065-0.0816-0.06545-0.12081-0.05464-0.0363-0.09935-0.0869-0.09935-0.11243 0-0.0256 0.11399-0.18265 0.25331-0.34912 0.13932-0.16646 0.30431-0.36444 0.36664-0.43996 0.31327-0.37953 0.36511-0.43493 0.40858-0.43665 0.02586-1e-3 0.1191-0.0865 0.20721-0.19004 0.22563-0.26506 0.51319-0.53555 0.59948-0.56389 0.04023-0.0132 0.09669-0.0757 0.12547-0.13885 0.02878-0.0632 0.08854-0.12845 0.1328-0.14511 0.04427-0.0166 0.17646-0.12935 0.29375-0.25044 0.11729-0.12108 0.24602-0.22016 0.28605-0.22016 0.04003 0 0.07279-0.0199 0.07279-0.0442 0-0.0817 0.27458-0.35781 0.38291-0.385 0.05902-0.0148 0.18241-0.0957 0.27419-0.17978 0.0918-0.0841 0.30061-0.21315 0.46406-0.28684 0.16345-0.0737 0.30805-0.16711 0.32133-0.20759 0.038-0.1159 0.63146-0.33157 1.0592-0.38495 0.18063-0.0225 0.26355-0.0115 0.35246 0.0467 0.0709 0.0464 0.15384 0.0642 0.21253 0.0456 0.1551-0.0492 0.48447 0.13391 0.62631 0.34825 0.12151 0.18362 0.12264 0.19149 0.0465 0.32419-0.0429 0.0748-0.078 0.17193-0.078 0.21585 0 0.0879-0.18115 0.27887-0.26451 0.27887-0.029 0-0.074-0.0398-0.1-0.0885-0.0734-0.13717-0.44888-0.10322-0.78621 0.0711-0.0665 0.0344-0.22157 0.0884-0.34456 0.12003-0.27238 0.0701-0.4589 0.20931-0.47993 0.35826-0.0136 0.0966-0.0404 0.11155-0.20382 0.11397-0.15956 2e-3 -0.21575 0.0318-0.37017 0.19418-0.10863 0.11419-0.24133 0.20324-0.32899 0.22077-0.11014 0.022-0.16914 0.0729-0.23564 0.20327-0.09385 0.18396-0.24672 0.31724-0.36387 0.31724-0.03878 0-0.09083 0.0463-0.11568 0.10298-0.02503 0.0571-0.11151 0.1225-0.19392 0.14676-0.09279 0.0273-0.14875 0.0733-0.14875 0.1221 0 0.0446-0.0727 0.11442-0.16878 0.16216-0.10944 0.0544-0.21 0.15834-0.28605 0.29569-0.0645 0.11651-0.23895 0.32246-0.38767 0.45768-0.46252 0.42054-0.57467 0.54505-0.66824 0.74182-0.09865 0.20747-0.37045 0.53382-0.4446 0.53382-0.02544 0-0.08905 0.10297-0.14136 0.22884-0.0523 0.12586-0.11684 0.22884-0.1434 0.22884-0.02657 0-0.0483 0.0281-0.0483 0.0625s-0.04155 0.1153-0.09234 0.17987c-0.12026 0.15288-0.04969 0.19281 0.17042 0.0965 0.0955-0.0418 0.22765-0.0732 0.29366-0.0698 0.06602 3e-3 0.14577-0.0248 0.17724-0.0628 0.03147-0.0379 0.08239-0.0689 0.11317-0.0689 0.03078 0 0.09037-0.038 0.13243-0.0845 0.04207-0.0465 0.15772-0.10885 0.25701-0.1386 0.09929-0.0298 0.2742-0.12559 0.38868-0.21298 0.11449-0.0874 0.23647-0.15889 0.27108-0.15889 0.0346 0 0.0727-0.0374 0.08465-0.0831 0.01701-0.065 0.05613-0.0791 0.1801-0.0646 0.11786 0.0138 0.19269-0.01 0.29254-0.0914 0.1192-0.0977 0.33283-0.219 0.77492-0.44022 0.07552-0.0378 0.20553-0.12008 0.28892-0.18287 0.0836-0.0629 0.21355-0.11416 0.28954-0.11416 0.10252 0 0.16778-0.0391 0.25428-0.15256 0.064-0.0839 0.14261-0.15256 0.17469-0.15256 0.0321 0 0.0698-0.03 0.0839-0.0667s0.1127-0.12168 0.21916-0.18889c0.15609-0.0985 0.20956-0.1122 0.27617-0.0706 0.11485 0.0717 0.11614 0.0709 0.17597-0.11038 0.0429-0.13008 0.0709-0.15641 0.14224-0.13378 0.0608 0.0193 0.13934-0.0162 0.24918-0.11264 0.0885-0.0777 0.21218-0.14083 0.27597-0.14083 0.0763 0 0.1998-0.0797 0.36324-0.23424 0.14765-0.13964 0.27419-0.22406 0.31333-0.20904 0.0361 0.0138 0.1-0.0127 0.14192-0.0591 0.0419-0.0463 0.1823-0.11895 0.31191-0.16134 0.14036-0.0459 0.34052-0.16792 0.49492-0.30168 0.14259-0.12353 0.28931-0.2246 0.32605-0.2246 0.0367 0 0.10406-0.0412 0.14962-0.0915 0.0456-0.0503 0.11273-0.0915 0.14925-0.0915 0.0365 0 0.10596-0.0503 0.15429-0.11172 0.0483-0.0614 0.13328-0.12612 0.18877-0.14374 0.1051-0.0333 0.36737-0.20382 0.39071-0.25394 7e-3 -0.0159 0.11879-0.11768 0.24756-0.22626 0.18449-0.15557 0.26593-0.19529 0.38409-0.18733 0.0885 6e-3 0.17462-0.0185 0.21012-0.0597 0.22071-0.25607 0.33604-0.35776 0.45133-0.39795 0.0723-0.0252 0.14395-0.0853 0.15926-0.13352 0.0153-0.0482 0.0419-0.0894 0.0591-0.0914s0.0908-8e-3 0.16362-0.0132c0.0856-6e-3 0.17573-0.0615 0.25506-0.15647 0.0675-0.0808 0.1634-0.14695 0.21317-0.14695 0.0498 0 0.11145-0.0209 0.13706-0.0466 0.0256-0.0256 0.11104-0.0651 0.18983-0.0877 0.16691-0.0479 0.26545 0.0303 0.2264 0.1797-0.0355 0.13562 0.0521 0.16168 0.10199 0.0304 0.0728-0.19143 0.14359-0.19407 0.31081-0.0116 0.12029 0.13124 0.14438 0.18437 0.1051 0.23171-0.028 0.0338-0.0381 0.11263-0.0224 0.17522 0.0164 0.0651 7e-3 0.12737-0.0228 0.14553-0.0282 0.0174-0.0392 0.07-0.0243 0.11687 0.0191 0.06-0.0101 0.10945-0.0989 0.16765-0.0693 0.0454-0.17064 0.12376-0.2253 0.17418-0.0547 0.0504-0.17279 0.14315-0.26255 0.20608-0.0898 0.0629-0.17416 0.15561-0.18757 0.20596-0.0134 0.0503-0.18965 0.24213-0.39164 0.42619-0.26338 0.24-0.41246 0.342-0.52705 0.3606-0.14092 0.0229-0.15657 0.0387-0.13255 0.13446 0.0222 0.0885 9e-3 0.10853-0.0693 0.10853-0.12301 0-0.30528 0.17566-0.24491 0.23603 0.0241 0.0241 0.15404 0.0375 0.28877 0.0298 0.2185-0.0125 0.24782-0.0264 0.2715-0.12848 0.02-0.086 0.0602-0.11754 0.16205-0.12701 0.16705-0.0155 0.58003-0.19452 0.62978-0.27296 0.0201-0.0317 0.0788-0.0577 0.13038-0.0577 0.0516 0 0.15297-0.0634 0.2253-0.14079 0.0723-0.0774 0.15264-0.12773 0.17847-0.11177 0.0258 0.016 0.0928-3e-3 0.14876-0.0423 0.056-0.0392 0.14058-0.0713 0.18798-0.0713s0.14738-0.0515 0.22217-0.11442c0.0748-0.0629 0.16344-0.11442 0.19701-0.11442 0.0336 0 0.16625-0.0832 0.29485-0.18482 0.12859-0.10165 0.3309-0.23645 0.44958-0.29955 0.11867-0.0631 0.2573-0.15258 0.30807-0.19885 0.13711-0.12497 0.3695-0.23214 0.50337-0.23214 0.065 0 0.1299-0.0307 0.14429-0.0682 0.0399-0.10388 0.38379-0.34055 0.45511-0.31317 0.0371 0.0142 0.0838-0.0216 0.11368-0.0872 0.0596-0.1308 0.26627-0.26378 0.40996-0.26378 0.0556 0 0.16576-0.0681 0.24467-0.15124 0.11302-0.11913 0.2061-0.16362 0.4385-0.2096 0.16226-0.0321 0.37255-0.0979 0.46729-0.14626 0.21392-0.10913 0.33617-0.11143 0.41381-8e-3 0.10582 0.14125 0.34248 0.2813 0.43462 0.25721 0.0719-0.0188 0.10086 0.0144 0.15209 0.17443 0.10964 0.34257 0.24955 0.52687 0.41961 0.55277 0.1105 0.0168 0.17396-2.6e-4 0.2336-0.063 0.045-0.0474 0.10248-0.0861 0.12767-0.0861 0.0252 0 0.15282-0.0721 0.28365-0.16019 0.13083-0.0881 0.27099-0.16018 0.31148-0.16018 0.0993 0 0.21327-0.13465 0.23237-0.27461 0.0116-0.0848 0.0471-0.11806 0.13718-0.12849 0.0802-9e-3 0.13015-0.0482 0.14686-0.11442 0.0139-0.0552 0.10854-0.19221 0.21027-0.30448 0.10172-0.11226 0.18494-0.23016 0.18494-0.26199 0-0.0318 0.0596-0.0887 0.13237-0.12631 0.0728-0.0376 0.1981-0.15145 0.27845-0.2529 0.0803-0.10145 0.18502-0.18445 0.2326-0.18445 0.0476 0 0.11688-0.0566 0.154-0.12586 0.0371-0.0692 0.20573-0.24944 0.3747-0.40047 0.16897-0.15104 0.4154-0.38274 0.54763-0.51489 0.18566-0.18557 0.27242-0.24028 0.38103-0.24028 0.11642 0 0.15172-0.0265 0.20506-0.15419 0.0497-0.11891 0.0996-0.16089 0.21801-0.18349 0.0845-0.0161 0.26207-0.0798 0.39466-0.14157 0.13259-0.0617 0.27187-0.10044 0.30951-0.086 0.0376 0.0144 0.0966 3e-3 0.1311-0.0257 0.0791-0.0656 0.63934-0.0697 0.85124-6e-3 0.0879 0.0264 0.25763 0.0479 0.3771 0.0479 0.11946 0 0.32555 0.0412 0.45798 0.0915 0.13242 0.0503 0.30256 0.0917 0.37807 0.0919 0.19262 5.2e-4 0.7419-0.13312 0.96614-0.23515 0.10345-0.0471 0.23979-0.0856 0.30298-0.0856 0.12405 0 0.65873-0.15996 0.74048-0.22152 0.0275-0.0207 0.17796-0.0831 0.33441-0.13877 0.15645-0.0556 0.44478-0.19043 0.64075-0.29955 0.19597-0.10913 0.43869-0.22471 0.53938-0.25686 0.10069-0.0322 0.20998-0.0965 0.24288-0.14298 0.0329-0.0465 0.10842-0.0845 0.16783-0.0845 0.14586 0 0.50967-0.1599 0.66917-0.29411 0.0714-0.0601 0.21064-0.12288 0.30947-0.13958 0.0992-0.0168 0.22544-0.0791 0.28194-0.13922 0.0563-0.0599 0.16163-0.1219 0.23417-0.13784 0.0725-0.0159 0.23932-0.10968 0.37061-0.20833 0.13129-0.0986 0.27851-0.17936 0.32715-0.17936 0.0487 0 0.15218-0.0476 0.23007-0.10578 0.0779-0.0582 0.20653-0.13192 0.28585-0.16387 0.0793-0.0319 0.19004-0.10685 0.24603-0.16645 0.056-0.0596 0.15665-0.12041 0.22368-0.13513 0.067-0.0147 0.15436-0.0803 0.19407-0.14576 0.067-0.11047 0.3356-0.24185 0.49766-0.24344 0.0384-3.7e-4 0.10519-0.0419 0.1483-0.0922 0.0431-0.0503 0.12687-0.0915 0.18614-0.0915 0.11216 0 0.25927-0.12658 0.25927-0.22308 0-0.0967 0.22005-0.28036 0.33592-0.28036 0.0681 0 0.14027-0.0443 0.1862-0.11442 0.0412-0.0629 0.11317-0.11442 0.15985-0.11442 0.0467 0 0.11164-0.0323 0.14436-0.0717 0.0327-0.0394 0.12277-0.10401 0.20012-0.14354 0.0773-0.0395 0.21793-0.14115 0.3124-0.22583 0.0945-0.0847 0.19634-0.15395 0.22638-0.15395 0.0704 0 0.35671-0.19277 0.68416-0.46059 0.16222-0.13268 0.34118-0.23243 0.48056-0.26786 0.12215-0.031 0.25298-0.0756 0.29074-0.0989 0.0378-0.0233 0.11499-0.0625 0.17163-0.087 0.0586-0.0254 0.10298-0.0848 0.10298-0.13794 0-0.0621 0.0549-0.11961 0.16386-0.17155 0.14021-0.0669 0.16039-0.0955 0.13978-0.19854-0.03-0.15018 0.0414-0.22528 0.21436-0.22528 0.0831 0 0.19259-0.0519 0.28993-0.13731 0.086-0.0755 0.17408-0.1373 0.19571-0.1373 0.0216 0 0.10349-0.0599 0.1819-0.13317 0.13191-0.12323 0.56155-0.39393 0.74815-0.47139 0.044-0.0183 0.0801-0.0633 0.0801-0.10005 0-0.0903 0.19721-0.23943 0.40333-0.30498 0.0928-0.0295 0.20063-0.0936 0.23957-0.1425 0.0389-0.0489 0.11483-0.11341 0.16865-0.14345 0.34213-0.19099 0.55953-0.33805 0.70599-0.47756 0.12607-0.12009 0.21909-0.16527 0.37685-0.18306 0.11521-0.013 0.23292-0.0519 0.26157-0.0864 0.0287-0.0345 0.0753-0.0634 0.10371-0.0642 0.0284-7.7e-4 0.12095-0.0934 0.2057-0.20595 0.0847-0.1125 0.19051-0.20454 0.23503-0.20454 0.0738 0 0.21588-0.10299 0.8242-0.59727 0.11354-0.0923 0.29739-0.21413 0.40856-0.27085 0.11117-0.0567 0.30661-0.19867 0.43432-0.31546 0.24929-0.22798 0.31515-0.27374 0.59834-0.41579 0.10069-0.0505 0.29635-0.17562 0.4348-0.27803 0.36048-0.26664 0.58176-0.40824 0.72027-0.4609 0.0665-0.0253 0.14901-0.0862 0.18344-0.13533 0.0344-0.0492 0.10778-0.0897 0.16299-0.0901 0.0552-4.1e-4 0.17416-0.0468 0.26433-0.10298 0.0902-0.0562 0.23147-0.14342 0.31399-0.19376 0.0825-0.0504 0.21469-0.1365 0.29373-0.19145 0.33979-0.23625 1.4603-0.83849 1.5595-0.83818 0.061 1.8e-4 1.0857-0.45619 1.1449-0.5099 0.0239-0.0217 0.0863-0.0395 0.13856-0.0395 0.0523 0 0.1416-0.0326 0.19844-0.0724 0.0568-0.0398 0.28817-0.12185 0.51407-0.1823 0.2259-0.0605 0.45687-0.13993 0.51326-0.17661 0.0564-0.0367 0.30354-0.0989 0.54922-0.13822 0.24568-0.0393 0.52035-0.11101 0.61037-0.15926 0.11877-0.0637 0.27252-0.0906 0.56021-0.0983 0.7792-0.0208 0.87192-0.0112 0.95439 0.0985 0.0299 0.0398 0.20861 0.14122 0.39706 0.22533 0.32958 0.14709 0.34779 0.16353 0.47768 0.43104 0.16994 0.34997 0.21746 0.55863 0.14666 0.64394-0.0295 0.0355-0.0405 0.10575-0.0246 0.15606 0.016 0.0503 5e-3 0.18003-0.0253 0.28825-0.0299 0.10822-0.0602 0.24409-0.0672 0.30193-7e-3 0.0578-0.0333 0.12992-0.0583 0.16019-0.025 0.0303-0.0604 0.1374-0.0786 0.23809s-0.0688 0.25516-0.11242 0.34326c-0.0436 0.0881-0.13461 0.33525-0.20227 0.54922-0.13531 0.42791-0.35284 0.90838-0.50768 1.1213-0.0549 0.0755-0.1864 0.33297-0.2922 0.5721-0.10579 0.23914-0.2737 0.55981-0.37312 0.7126-0.0994 0.15279-0.18075 0.31391-0.18075 0.35805 0 0.0441-0.0824 0.15421-0.18307 0.2446-0.10069 0.0904-0.18308 0.19897-0.18308 0.2413 0 0.0835-0.47413 1.0395-0.62488 1.26-0.32776 0.47938-0.47355 0.70244-0.47355 0.72452 0 0.0562-0.63699 1.1325-0.7491 1.2657-0.0663 0.0788-0.12049 0.18311-0.12049 0.23191 0 0.12471-0.24589 0.54614-0.4109 0.70423-0.0851 0.0816-0.13831 0.17871-0.13831 0.25269 0 0.0738-0.053 0.17096-0.13731 0.25172-0.0755 0.0724-0.1373 0.15463-0.1373 0.18284 0 0.0282-0.12873 0.23087-0.28605 0.45035-0.36929 0.51517-0.60106 0.8842-0.67596 1.0763-0.0329 0.0843-0.12853 0.2356-0.21253 0.33614-0.084 0.10055-0.15274 0.20893-0.15274 0.24084 0 0.0319-0.0618 0.13578-0.1373 0.2308-0.0755 0.095-0.1373 0.19595-0.1373 0.22427 0 0.0283-0.1047 0.2057-0.23267 0.39417-0.12797 0.18848-0.3022 0.46677-0.3872 0.61843-0.085 0.15165-0.21714 0.33571-0.29366 0.40903-0.0765 0.0733-0.13914 0.16942-0.13914 0.21357 0 0.0442-0.0166 0.0905-0.0369 0.10306-0.0203 0.0125-0.0922 0.13217-0.15989 0.26587-0.0677 0.13369-0.21645 0.35635-0.33065 0.4948-0.11419 0.13845-0.30905 0.43917-0.43303 0.66828-0.19702 0.36409-0.39406 0.64964-0.61262 0.88783-0.0346 0.0378-0.0773 0.1151-0.0948 0.17188-0.0175 0.0568-0.0782 0.15975-0.13491 0.22884-0.0567 0.0691-0.16339 0.2697-0.23712 0.44581-0.0737 0.17611-0.1878 0.38207-0.25348 0.45768-0.14891 0.17142-0.43631 0.6664-0.78185 1.3466-0.14602 0.2874-0.29234 0.55514-0.32518 0.59498-0.0853 0.10352-0.39831 0.62906-0.39831 0.66878 0 0.0183-0.0721 0.11311-0.16019 0.21063-0.0881 0.0975-0.16019 0.22137-0.16019 0.27522 0 0.0538-0.089 0.20311-0.19774 0.33168-0.18492 0.21862-0.39724 0.59212-0.39724 0.69881 0 0.0259-0.0429 0.0859-0.0953 0.13337-0.0524 0.0474-0.1219 0.1499-0.1544 0.22768-0.0325 0.0778-0.11833 0.23028-0.19073 0.33887-0.0724 0.1086-0.18832 0.28222-0.25758 0.38584-0.0693 0.10361-0.16994 0.28107-0.22373 0.39435-0.0538 0.11327-0.16848 0.28484-0.25486 0.38126-0.0864 0.0964-0.19818 0.27124-0.24844 0.38849-0.0503 0.11725-0.18269 0.35178-0.29429 0.52118s-0.2029 0.32802-0.2029 0.3525c0 0.0548-0.43452 0.63033-0.58029 0.76865-0.0637 0.0604-0.10624 0.15411-0.10624 0.23389 0 0.0732-0.0548 0.21321-0.12175 0.31112-0.067 0.0979-0.19082 0.31704-0.27523 0.48695-0.0844 0.16992-0.1944 0.33449-0.2444 0.36572-0.05 0.0312-0.0909 0.0944-0.0909 0.14035 0 0.046-0.0515 0.15109-0.11442 0.23359-0.0629 0.0825-0.11442 0.18175-0.11442 0.22053 0 0.0388-0.0905 0.18101-0.20121 0.31605-0.11066 0.13505-0.25726 0.34852-0.32578 0.47438-0.0685 0.12587-0.17363 0.27602-0.23359 0.33368-0.06 0.0576-0.10901 0.14147-0.10901 0.18625 0 0.0448-0.0463 0.12565-0.10298 0.17968-0.18408 0.17563-0.24991 0.25886-0.33182 0.4195-0.14004 0.27465-0.42154 0.66056-0.59134 0.81069-0.0901 0.0797-0.16383 0.18157-0.16383 0.22647 0 0.10919-0.37792 0.6675-0.54963 0.81198-0.0753 0.0634-0.15771 0.16989-0.18312 0.23671-0.0263 0.0692-0.10499 0.14371-0.18278 0.17307-0.0751 0.0283-0.13427 0.0728-0.13144 0.0988 0.0162 0.14894-0.022 0.2202-0.16283 0.30327-0.0864 0.051-0.15524 0.12753-0.15292 0.17009 7e-3 0.12068-0.13568 0.41892-0.21421 0.44905-0.0389 0.0149-0.0707 0.0546-0.0707 0.0881s-0.0824 0.15616-0.18307 0.2725c-0.10069 0.11633-0.18307 0.23797-0.18307 0.27029 0 0.0323-0.0434 0.098-0.0964 0.14597-0.053 0.048-0.13513 0.16306-0.18246 0.25579-0.0473 0.0927-0.13216 0.2009-0.18852 0.24037-0.0563 0.0395-0.13386 0.1298-0.17224 0.20072-0.10085 0.18637-0.46857 0.63394-0.55792 0.67907-0.0956 0.0483-0.4501 0.51916-0.4501 0.5978 0 0.0321-0.0691 0.1356-0.15358 0.23007-0.0845 0.0945-0.17828 0.21884-0.20845 0.27638-0.0306 0.0583-0.11459 0.11657-0.18968 0.13159-0.0742 0.0148-0.13481 0.0552-0.13481 0.0898 0 0.0345-0.0721 0.14259-0.16019 0.24011-0.0881 0.0975-0.16019 0.19871-0.16019 0.22486 0 0.0963-0.37069 0.51285-0.48103 0.54054-0.0627 0.0157-0.11395 0.0551-0.11395 0.0874s-0.0309 0.0707-0.0686 0.0851c-0.0378 0.0145-0.0687 0.0642-0.0687 0.11034 0 0.0935-0.26976 0.37656-0.35889 0.37656-0.0314 0-0.0537 0.0258-0.0496 0.0572 0.0192 0.148-5e-3 0.18107-0.11421 0.15375-0.096-0.0241-0.11548-8e-3 -0.14602 0.1209-0.0194 0.0818-0.0302 0.16734-0.0242 0.19012 0.0143 0.0533-0.3166 0.39338-0.38267 0.39338-0.0275 0-0.10059 0.0641-0.16234 0.14241-0.0617 0.0783-0.16891 0.20349-0.23813 0.27813-0.0692 0.0746-0.12586 0.16516-0.12586 0.20115 0 0.036-0.0498 0.10876-0.11073 0.16171-0.0609 0.0529-0.12341 0.14685-0.13893 0.20867-0.0176 0.0702-0.0857 0.1364-0.1814 0.1764-0.0961 0.0402-0.16376 0.10612-0.18155 0.17703-0.0201 0.0802-0.0648 0.11723-0.15358 0.12749-0.10307 0.0119-0.13026 0.0428-0.15377 0.17466-0.0403 0.22602-0.1217 0.41191-0.18035 0.41191-0.0275 0-0.0935-0.0233-0.14681-0.0519-0.0814-0.0435-0.11026-0.0354-0.18007 0.0508-0.0457 0.0565-0.0832 0.15968-0.0832 0.22933 0 0.13532-0.0814 0.2294-0.21512 0.24867-0.0453 7e-3 -0.0886 0.0535-0.0962 0.10443-8e-3 0.0509-0.0642 0.11555-0.12587 0.14363-0.0687 0.0313-0.11205 0.0894-0.11205 0.15022 0 0.0616-0.10367 0.19782-0.27387 0.35978-0.15063 0.14332-0.30668 0.33912-0.34678 0.43509-0.10385 0.24855-0.2376 0.34998-0.42057 0.31896-0.11587-0.0196-0.14875-9e-3 -0.14875 0.0473 0 0.13437-0.17691 0.42073-0.3424 0.55425-0.40121 0.32368-0.56567 0.48627-0.59002 0.58331-0.0146 0.0583-0.12759 0.16997-0.25628 0.25336-0.17411 0.11282-0.23011 0.17666-0.23011 0.26233 0 0.11351-0.18174 0.33791-0.27366 0.33791-0.0269 0-0.0686 0.0515-0.0925 0.1144s-0.1065 0.15272-0.18351 0.19954c-0.077 0.0468-0.21299 0.17042-0.30219 0.27464-0.17183 0.20073-0.32723 0.24426-0.42999 0.12044zm-22.014-24.56c0-0.0252-0.0206-0.033-0.04577-0.0175-0.02517 0.0156-0.04577 0.0489-0.04577 0.074 0 0.0252 0.0206 0.033 0.04577 0.0175s0.04577-0.0489 0.04577-0.074zm0.27461-1.2074c0-0.0378-0.03089-0.0687-0.06865-0.0687s-0.06865 0.0309-0.06865 0.0687 0.03089 0.0686 0.06865 0.0686 0.06865-0.0309 0.06865-0.0686zm-12.998 21.235c0-0.0386-0.03236-0.11965-0.07191-0.18-0.07902-0.12061-0.04235-0.2424 0.10658-0.35402 0.11508-0.0862 0.2857-0.34081 0.2857-0.42628 0-0.10937 0.21733-0.48195 0.38171-0.65437 0.13107-0.13749 0.13712-0.15593 0.06453-0.19679-0.11661-0.0656-0.09848-0.16621 0.0553-0.30667 0.10002-0.0913 0.12412-0.1415 0.09224-0.19193-0.08314-0.1315-0.0427-0.22996 0.18428-0.44874 0.17368-0.1674 0.22884-0.25332 0.22884-0.35643 0-0.0747 0.04119-0.25306 0.09154-0.3963 0.05034-0.14324 0.09154-0.29719 0.09154-0.34211 0-0.0449 0.0426-0.10826 0.09466-0.14078 0.07267-0.0454 0.0882-0.0885 0.06687-0.18564-0.01985-0.0904 0-0.16194 0.06965-0.25041 0.08165-0.1038 0.08978-0.14585 0.05016-0.2595-0.03721-0.10675-0.03252-0.15039 0.02203-0.20494 0.03812-0.0381 0.08429-0.0693 0.10261-0.0693 0.04475 0 0.12899-0.26515 0.13705-0.43136 0.0036-0.0736 0.03933-0.17015 0.07947-0.21451 0.04014-0.0444 0.05948-0.10251 0.04297-0.12922-0.01651-0.0267 0.0021-0.0944 0.04129-0.15037 0.03921-0.056 0.0713-0.13554 0.0713-0.17677 0-0.0412 0.05149-0.15084 0.11442-0.24357 0.06293-0.0927 0.11442-0.21809 0.11442-0.27857 0-0.0605 0.05283-0.20889 0.1174-0.32979s0.11918-0.27579 0.12134-0.34421c0.0022-0.0684 0.0525-0.17001 0.11187-0.22577 0.06293-0.0591 0.09789-0.13298 0.08387-0.17718-0.01323-0.0417 0.0088-0.15452 0.04905-0.25074 0.04437-0.10619 0.0624-0.232 0.04588-0.32008-0.02031-0.10824-0.0052-0.16501 0.05922-0.22336 0.04755-0.043 0.08645-0.13109 0.08645-0.1957 0-0.0735 0.06072-0.17819 0.16228-0.27974 0.16099-0.16098 0.16154-0.16287 0.06888-0.2379l-0.09339-0.0756 0.10837-0.33649c0.06841-0.2124 0.13652-0.34385 0.18469-0.35644 0.09355-0.0245 0.13848-0.18546 0.10228-0.36649-0.02239-0.11196-0.01007-0.13972 0.07153-0.16106 0.08627-0.0226 0.09139-0.0373 0.04094-0.11809-0.04677-0.0749-0.04582-0.1144 0.0051-0.20949 0.03449-0.0644 0.0508-0.12907 0.03625-0.14363-0.01455-0.0145 0.01347-0.11673 0.06229-0.22708 0.05511-0.12458 0.07773-0.24451 0.05967-0.31644-0.02044-0.0814-0.0083-0.1238 0.04098-0.14271 0.05084-0.0195 0.06335-0.0682 0.04562-0.1774-0.01946-0.11997-0.0039-0.1649 0.07679-0.22141 0.0855-0.0599 0.09662-0.0981 0.07161-0.24638-0.02034-0.12062-0.0089-0.20374 0.03655-0.26585 0.04163-0.0569 0.05698-0.14686 0.04142-0.24279-0.0136-0.0838-0.0036-0.19763 0.02221-0.25289 0.09288-0.19878 0.16088-0.48458 0.13701-0.57585-0.02605-0.0996 0.0351-0.30303 0.16279-0.54158 0.04338-0.0811 0.07623-0.16343 0.073-0.18307-0.0033-0.0196-0.0034-0.12324-4.54e-4 -0.23022 0.0049-0.17553 0.01659-0.19452 0.11984-0.19452 0.13227 0 0.1421-0.0309 0.04429-0.13894-0.0589-0.0651-0.06178-0.11331-0.01796-0.3011 0.0287-0.12297 0.07841-0.28538 0.11047-0.3609 0.03205-0.0755 0.08166-0.27117 0.11023-0.4348 0.10343-0.59225 0.13872-0.74184 0.18946-0.80298 0.0284-0.0342 0.03858-0.10337 0.02261-0.15366-0.01596-0.0503 0.0029-0.15324 0.04199-0.22876 0.03905-0.0755 0.07101-0.21001 0.07101-0.29886 0-0.0888 0.03075-0.23918 0.06834-0.33409 0.03759-0.0949 0.08683-0.29613 0.10943-0.44716 0.04001-0.26741 0.06186-0.34171 0.2437-0.82867 0.08056-0.21576 0.1534-0.51315 0.26742-1.092 0.02462-0.12498 0.06505-0.24752 0.08985-0.27232s0.04509-0.0912 0.04509-0.14765c0-0.0564 0.02194-0.11612 0.04875-0.1327 0.03235-0.02 0.02478-0.0566-0.02251-0.10887-0.06275-0.0693-0.06328-0.0893-0.0044-0.16709 0.03676-0.0486 0.06748-0.15134 0.06829-0.22833 7.79e-4 -0.077 0.03169-0.17998 0.06865-0.22885 0.03696-0.0489 0.06858-0.16092 0.07027-0.24902 0.0017-0.0881 0.03251-0.21168 0.06849-0.27461 0.03597-0.0629 0.06614-0.19943 0.06703-0.30333 9.21e-4 -0.10921 0.0302-0.21263 0.06936-0.24513 0.03726-0.0309 0.06657-0.10038 0.06514-0.15435-0.0043-0.16346 0.16736-0.6939 0.26337-0.81366 0.02757-0.0344 0.03571-0.10212 0.01809-0.15052-0.0324-0.089 0.03734-0.34276 0.1587-0.57744 0.03644-0.0705 0.06395-0.23002 0.06114-0.3546-0.0038-0.16958 0.03181-0.30148 0.14179-0.52489 0.08079-0.16411 0.14284-0.33674 0.13788-0.38363-0.01666-0.15741 9.6e-4 -0.1896 0.1201-0.2195 0.0901-0.0226 0.11053-0.0485 0.08506-0.10794-0.07704-0.17968-0.06955-0.32788 0.02732-0.54052 0.05614-0.12324 0.1183-0.33737 0.13812-0.47585 0.01983-0.13847 0.09112-0.44743 0.15842-0.68657 0.06731-0.23914 0.14476-0.54807 0.17212-0.68652 0.02736-0.13845 0.06949-0.26509 0.09363-0.28143 0.02415-0.0163 0.03331-0.0575 0.02036-0.0915s-0.0021-0.11331 0.02416-0.17624c0.02624-0.0629 0.07343-0.238 0.10487-0.38903 0.10901-0.52365 0.14003-0.64128 0.19705-0.74731 0.03152-0.0586 0.04628-0.13527 0.03281-0.17038-0.01347-0.0351 0.01127-0.0901 0.055-0.12228 0.04372-0.0322 0.08027-0.10995 0.08123-0.17288 0.0038-0.2531 0.05931-0.46684 0.13558-0.52261 0.0547-0.04 0.08507-0.13453 0.09464-0.29466 0.0078-0.12967 0.03611-0.27687 0.063-0.32712 0.03482-0.0651 0.03452-0.1182-1e-3 -0.18467-0.04092-0.0765-0.02951-0.11761 0.06316-0.22775 0.06221-0.0739 0.12594-0.20185 0.14164-0.28426 0.10641-0.55894 0.21759-0.96852 0.28402-1.0463 0.03884-0.0455 0.05171-0.12431 0.03441-0.21082-0.02053-0.10261-0.0086-0.14546 0.04623-0.16651 0.04407-0.0169 0.07322-0.0796 0.07227-0.15534-0.0034-0.27009 0.04145-0.54463 0.11046-0.6762 0.06914-0.13182 0.09431-0.25172 0.05285-0.25172-0.01085 0-0.16017 0.13381-0.33182 0.29736-0.17165 0.16355-0.33972 0.29742-0.3735 0.29749-0.03378 9e-5 -0.11616 0.0422-0.18307 0.0937-0.06691 0.0514-0.22464 0.16354-0.3505 0.24911-0.12586 0.0856-0.35136 0.23913-0.50111 0.34126-0.14975 0.10212-0.29418 0.18568-0.32097 0.18568-0.02678 0-0.06903 0.0458-0.09388 0.10186-0.04662 0.10512-0.09147 0.13286-0.53718 0.33229-0.14474 0.0648-0.26317 0.13818-0.26317 0.16316 0 0.025-0.05664 0.0705-0.12586 0.10117-0.11986 0.0531-0.46328 0.3133-0.70158 0.53156-0.06094 0.0558-0.14294 0.13092-0.18223 0.16689-0.03929 0.036-0.18346 0.12372-0.32038 0.19497-0.48413 0.25195-0.79929 0.43543-0.89265 0.51969-0.05196 0.0469-0.11571 0.0853-0.14165 0.0853-0.02594 0-0.08437 0.0411-0.12984 0.0913s-0.18768 0.13977-0.31603 0.19894c-0.12834 0.0592-0.32283 0.18284-0.4322 0.2748-0.10937 0.0919-0.22938 0.16719-0.26668 0.16719-0.03732 0-0.12963 0.0618-0.20515 0.13731-0.07552 0.0755-0.16703 0.1373-0.20335 0.1373-0.11274 0-0.39915 0.20806-0.588 0.42715-0.09928 0.11519-0.2795 0.25642-0.40047 0.31386-0.16813 0.0798-0.21995 0.12907-0.21995 0.20902 0 0.14832-0.21479 0.24636-0.29611 0.13515-0.03428-0.0469-0.11946-0.0786-0.21238-0.079-0.08533-3.6e-4 -0.24782-0.0285-0.3611-0.0624-0.1547-0.0464-0.20632-0.0848-0.20744-0.15424-8.17e-4 -0.0509-0.02799-0.12442-0.06039-0.16346-0.04358-0.0525-0.04617-0.0948-0.01-0.16243 0.02692-0.0503 0.04895-0.14358 0.04895-0.20729 0-0.14152 0.21126-0.39087 0.43178-0.50963 0.08976-0.0483 0.1632-0.10279 0.1632-0.12101 0-0.0182 0.13066-0.10619 0.29035-0.19549s0.32659-0.20242 0.37089-0.25137c0.0443-0.0489 0.13847-0.10172 0.20928-0.11728 0.0708-0.0155 0.13923-0.0556 0.15206-0.089 0.02234-0.0582 0.33365-0.24759 1.057-0.64303 0.1842-0.10069 0.36316-0.20527 0.39771-0.2324 0.03454-0.0271 0.22757-0.12893 0.42895-0.22624 0.20138-0.0973 0.41398-0.23472 0.47244-0.30537 0.05846-0.0707 0.12922-0.12847 0.15724-0.12847s0.09346-0.0379 0.14543-0.0843c0.05197-0.0464 0.23728-0.14375 0.4118-0.21638 0.18569-0.0773 0.37533-0.19583 0.45719-0.28578 0.07693-0.0845 0.24307-0.20462 0.36921-0.26684 0.30269-0.14931 0.37544-0.20685 0.3959-0.31309 0.01117-0.058 0.0701-0.0994 0.17081-0.12002 0.08456-0.0173 0.20841-0.0719 0.27522-0.12125 0.0668-0.0494 0.16556-0.1038 0.21946-0.1209s0.13121-0.0818 0.1718-0.14374c0.04382-0.0669 0.11758-0.11264 0.18156-0.11264 0.11867 0 0.19196-0.0681 0.21702-0.20163 0.01102-0.0587 0.0957-0.11416 0.2592-0.16971 0.13356-0.0454 0.27773-0.12494 0.32038-0.17682 0.07542-0.0917 0.26747-0.21265 0.52378-0.32976 0.06922-0.0316 0.12586-0.0825 0.12586-0.11304 0-0.0305 0.04255-0.069 0.09454-0.0855 0.052-0.0165 0.16292-0.09 0.2465-0.16342 0.08357-0.0734 0.23136-0.1666 0.32842-0.20715 0.25374-0.10602 0.4403-0.27829 0.50821-0.46928 0.08534-0.23999 0.1555-0.51164 0.17293-0.66954 0.0083-0.0755 0.04692-0.22288 0.08573-0.32748 0.03882-0.1046 0.08447-0.32583 0.10146-0.49162 0.01698-0.16579 0.05895-0.32472 0.09325-0.35319 0.0343-0.0285 0.06237-0.10442 0.06237-0.16878 0-0.0643 0.01912-0.18025 0.04249-0.25756 0.07389-0.24445 0.18755-0.82218 0.18694-0.95023-5.19e-4 -0.0677 0.01857-0.135 0.04198-0.14947 0.02341-0.0145 0.05532-0.14441 0.0709-0.28875 0.01558-0.14435 0.05214-0.30364 0.08123-0.35398 0.0291-0.0504 0.06627-0.23076 0.08261-0.40092 0.01878-0.19567 0.05903-0.34179 0.10952-0.39758 0.0439-0.0485 0.06631-0.11007 0.0498-0.13679-0.01651-0.0267 0.02099-0.23912 0.08334-0.472 0.15562-0.58126 0.20434-0.8017 0.30513-1.3806 0.04783-0.27474 0.1083-0.52085 0.13438-0.54693 0.02608-0.0261 0.04742-0.0904 0.04742-0.14301 0-0.0526 0.04206-0.17717 0.09346-0.27689 0.06916-0.13417 0.091-0.25507 0.08399-0.46502-0.0057-0.17006 0.01297-0.31076 0.04657-0.35123 0.03379-0.0407 0.04517-0.12793 0.02865-0.21974-0.01871-0.104 0.01043-0.26094 0.092-0.49548 0.06567-0.18879 0.12992-0.39474 0.1428-0.45768 0.01287-0.0629 0.03493-0.14531 0.04902-0.18307 0.01409-0.0378 0.03218-0.23341 0.04021-0.43479 0.0359-0.90027 0.0542-1.0467 0.13852-1.1084 0.06445-0.0471 0.08456-0.13569 0.09393-0.41366 0.0091-0.27032 0.03025-0.3671 0.08967-0.41055 0.05996-0.0438 0.08077-0.14242 0.09096-0.43095 0.0073-0.20576 0.03469-0.39558 0.06094-0.42182 0.02624-0.0262 0.04771-0.0807 0.04771-0.12111 0-0.0404 0.04896-0.17527 0.10881-0.29978 0.16304-0.33919 0.17231-0.38496 0.11186-0.55213-0.04949-0.13686-0.04451-0.16874 0.04527-0.29018 0.0923-0.12484 0.09892-0.17448 0.07792-0.58408-0.01262-0.2462-0.03417-0.50048-0.04788-0.56506-0.04055-0.19099 0.12651-0.36314 0.35239-0.36314 0.14554 0 0.18904 0.0191 0.20798 0.0915 0.01316 0.0503 0.0416 0.0915 0.06319 0.0915 0.0923 0 0.19022 0.30781 0.20275 0.63734 0.0072 0.19067 0.02081 0.54233 0.03013 0.78147 0.01346 0.34514 0 0.47457-0.06571 0.62771-0.04945 0.11541-0.08175 0.2993-0.08037 0.45768 0.0058 0.6701-0.02032 0.90388-0.1029 0.91978-0.08902 0.0172-0.09062 0.0233-0.09753 0.37476-0.0037 0.18776-0.03227 0.28813-0.11248 0.39498-0.08247 0.10987-0.09698 0.1632-0.06228 0.22884 0.05362 0.10144 0.0036 0.48602-0.07566 0.5815-0.0384 0.0463-0.0426 0.12013-0.01408 0.24708 0.02955 0.13154 0.02353 0.21385-0.02202 0.30078-0.03449 0.0658-0.07534 0.24922-0.09077 0.40755-0.01543 0.15832-0.07992 0.46292-0.1433 0.67689-0.06338 0.21396-0.13159 0.5023-0.15158 0.64075-0.07122 0.49311-0.0906 0.59601-0.13364 0.7092-0.02397 0.063-0.06732 0.11462-0.09633 0.11462-0.03594 0-0.04339 0.0585-0.02338 0.18366 0.02195 0.13721 0.0061 0.22933-0.0628 0.36432-0.05069 0.0994-0.09349 0.23812-0.09511 0.30835-0.0049 0.21058-0.1097 0.64766-0.16978 0.70774-0.03087 0.0309-0.05612 0.15866-0.05612 0.284 0 0.21194-0.02733 0.34183-0.14563 0.69206-0.02551 0.0755-0.05261 0.20938-0.06023 0.29749-0.02984 0.34511-0.08398 0.57576-0.15397 0.65601-0.04025 0.0462-0.06726 0.14048-0.06 0.20961 0.0075 0.0717-0.01728 0.15097-0.05766 0.18449-0.04572 0.0379-0.06107 0.0977-0.04329 0.16857 0.01515 0.0604 0.0082 0.13526-0.0154 0.16639-0.02363 0.0311-0.04065 0.1699-0.03784 0.30834 0.0038 0.18659-0.01729 0.27753-0.08148 0.35143-0.04763 0.0548-0.07742 0.12693-0.06619 0.16019 0.01122 0.0333-0.0063 0.1248-0.03905 0.20342-0.0327 0.0786-0.04719 0.1552-0.03219 0.1702s-0.0064 0.0787-0.04758 0.1415c-0.04117 0.0628-0.07485 0.18293-0.07485 0.26689 0 0.084-0.02194 0.17458-0.04875 0.20139-0.02681 0.0268-0.05589 0.12876-0.06461 0.22655-0.0087 0.0978-0.03569 0.27602-0.05992 0.39606-0.02666 0.13203-0.02746 0.22851-0.0021 0.24422 0.05115 0.0316 0.17526-0.0648 0.17548-0.13626 0-0.0284 0.11336-0.11267 0.25172-0.18731 0.13836-0.0746 0.25156-0.15076 0.25156-0.16918 0-0.0488 0.47862-0.35875 0.55395-0.35875 0.03516-1e-5 0.12131-0.0719 0.19147-0.15987 0.12404-0.15547 0.47577-0.40353 0.7306-0.51527 0.06922-0.0303 0.12586-0.0892 0.12586-0.13086 0-0.0924 0.3004-0.38397 0.39564-0.38397 0.03781 0 0.14447-0.0847 0.23702-0.18818 0.09255-0.1035 0.20947-0.20643 0.25982-0.22873 0.05035-0.0223 0.12243-0.0589 0.16019-0.0814 0.03776-0.0225 0.14341-0.0774 0.23478-0.12198 0.11196-0.0547 0.1974-0.1455 0.26204-0.27856 0.0677-0.13934 0.14338-0.21726 0.25722-0.26483 0.0887-0.0371 0.16131-0.0982 0.16131-0.13579 0-0.0956 0.17131-0.20539 0.27722-0.1777 0.0686 0.0179 0.10616-0.0179 0.16867-0.16061 0.0834-0.19046 0.38267-0.46034 0.6411-0.57815 0.0818-0.0373 0.14875-0.0882 0.14875-0.11313 0-0.0448 0.24847-0.36478 0.47708-0.61442 0.0648-0.0708 0.1179-0.13891 0.1179-0.15133 0-0.0124 0.0928-0.15016 0.20622-0.30606 0.11343-0.15591 0.3311-0.46882 0.48373-0.69538 0.42763-0.63477 0.49397-0.72877 0.54902-0.77805 0.0281-0.0252 0.10527-0.10241 0.17144-0.17163 0.0662-0.0692 0.1647-0.12586 0.21894-0.12586 0.0542 0 0.12427-0.0309 0.1556-0.0687 0.0871-0.105 0.32887-0.083 0.50345 0.0458 0.0853 0.0629 0.18151 0.11442 0.21379 0.11442 0.17711 0 0.26463 0.55462 0.1221 0.77368-0.0425 0.0653-0.18697 0.23147-0.32101 0.36918-0.13404 0.1377-0.24372 0.26682-0.24372 0.28692s-0.10173 0.14427-0.22606 0.27595c-0.23223 0.24593-0.41836 0.49804-0.47294 0.64057-0.017 0.0444-0.0787 0.0989-0.13701 0.12111-0.0583 0.0222-0.16507 0.13-0.23718 0.23959-0.0721 0.1096-0.16531 0.25076-0.20712 0.31369-0.0418 0.0629-0.0894 0.15046-0.10582 0.19451-0.0164 0.0441-0.0562 0.0807-0.0885 0.0815-0.10834 3e-3 -0.30314 0.21568-0.31827 0.34801-0.012 0.10468-0.0405 0.13405-0.14166 0.14567-0.099 0.0114-0.1507 0.062-0.23671 0.23172-0.0605 0.11943-0.1458 0.24675-0.18951 0.28293-0.0437 0.0362-0.13664 0.18655-0.20651 0.33417-0.0699 0.14761-0.16958 0.30803-0.22159 0.35648-0.052 0.0485-0.0946 0.11594-0.0946 0.14998 0 0.034-0.0824 0.16158-0.18307 0.28343-0.10069 0.12185-0.18307 0.24717-0.18307 0.27848 0 0.0313-0.0411 0.12438-0.0914 0.2068-0.0503 0.0824-0.0914 0.18312-0.0915 0.22377 0 0.0407-0.0382 0.12304-0.0847 0.18307-0.0465 0.06-0.098 0.16421-0.11441 0.23149-0.0164 0.0673-0.0821 0.18438-0.14587 0.26022-0.0638 0.0758-0.146 0.23882-0.18264 0.36217-0.0366 0.12335-0.10799 0.26174-0.15859 0.30753-0.0586 0.053-0.0927 0.14303-0.094 0.24778-1e-3 0.0905-0.0317 0.24692-0.068 0.34761-0.03628 0.10069-0.06627 0.22664-0.06664 0.27988-5.18e-4 0.0532-0.04061 0.14755-0.08939 0.20957-0.09007 0.11451-0.1674 0.33826-0.14903 0.43125 0.0056 0.0281-0.02107 0.077-0.05916 0.10858-0.03809 0.0316-0.06926 0.0927-0.06926 0.13578 0 0.0431-0.01443 0.0927-0.03206 0.11037-0.0439 0.0439-0.19527 0.53597-0.19611 0.63747-5.19e-4 0.0452-0.05216 0.13366-0.11509 0.19659-0.06293 0.0629-0.11442 0.1519-0.11442 0.1977s-0.04119 0.13565-0.09153 0.19966c-0.05035 0.064-0.09154 0.18143-0.09154 0.26095 0 0.0837-0.04817 0.20774-0.11442 0.29459-0.06293 0.0825-0.11442 0.18159-0.11442 0.22018 0 0.0386-0.03136 0.0962-0.06969 0.12801-0.03832 0.0318-0.05845 0.0932-0.04473 0.13644 0.01372 0.0432-0.0064 0.10464-0.04473 0.13645-0.03833 0.0318-0.06969 0.0934-0.06969 0.13693 0 0.15382-0.0984 0.35849-0.18299 0.38061-0.06094 0.0159-0.07846 0.0501-0.06065 0.11819 0.03675 0.14054-0.19089 0.22409-0.31198 0.1145-0.04682-0.0424-0.08513-0.11504-0.08513-0.16148 0-0.0464-0.0206-0.0845-0.04577-0.0845s-0.08863-0.0429-0.14103-0.0953c-0.09005-0.09-0.091-0.1-0.01733-0.18136 0.04504-0.0498 0.06546-0.1186 0.04839-0.16309-0.01643-0.0428 1e-3 -0.11083 0.0395-0.15326 0.04597-0.0508 0.07202-0.187 0.07794-0.40765 0.0049-0.18225 0.02482-0.3412 0.04427-0.35323 0.03099-0.0191 0.19297-0.34625 0.38347-0.77436 0.09858-0.22153 0.29699-0.7446 0.29809-0.78586 5.19e-4 -0.0209 0.0413-0.0894 0.09052-0.15238 0.04922-0.0629 0.08996-0.16787 0.09052-0.23319 5.19e-4 -0.0653 0.04221-0.15605 0.09255-0.20161 0.05944-0.0538 0.09153-0.14096 0.09153-0.24863 0-0.0912 0.03296-0.21285 0.07324-0.27037 0.04076-0.0582 0.06193-0.14784 0.04774-0.20212-0.01497-0.0573 0.01932-0.18368 0.08302-0.30608 0.13081-0.25134 0.25368-0.62105 0.25368-0.76331 0-0.057 0.03612-0.13058 0.08028-0.16347 0.09325-0.0695 0.24066-0.46173 0.24032-0.63953 0-0.0754 0.04192-0.15414 0.10997-0.20596 0.08818-0.0671 0.10219-0.10449 0.07013-0.18689-0.04962-0.12754-0.1161-0.13269-0.14781-0.0114-0.01493 0.0571-0.06243 0.0915-0.12615 0.0915-0.05622 0-0.12508 0.0282-0.15304 0.0626-0.1214 0.14957-0.94634 0.76122-1.0267 0.76122-0.10194 0-0.17402 0.0748-0.19835 0.20585-0.0098 0.053-0.12269 0.15314-0.26809 0.23802-0.13811 0.0806-0.29231 0.1858-0.34265 0.23374-0.05035 0.0479-0.12758 0.0998-0.17163 0.11525-0.04405 0.0155-0.08009 0.0474-0.08009 0.071s-0.0934 0.10476-0.20756 0.18037c-0.11416 0.0756-0.2477 0.18852-0.29677 0.2509-0.04906 0.0624-0.14479 0.12736-0.21272 0.14441-0.06793 0.0171-0.18013 0.076-0.24934 0.13101-0.0692 0.055-0.2508 0.18927-0.40354 0.29838-0.17706 0.12648-0.27771 0.23074-0.27771 0.28766 0 0.0491-0.02975 0.1349-0.06612 0.19065-0.03637 0.0557-0.06425 0.16403-0.06196 0.24061 0.0023 0.0766-0.02329 0.18986-0.05685 0.25173-0.03357 0.0619-0.07624 0.22244-0.09484 0.35685-0.0186 0.1344-0.0677 0.28182-0.10913 0.32759-0.05146 0.0569-0.07532 0.16627-0.07532 0.34543 0 0.17154-0.03052 0.31917-0.08826 0.42691-0.04855 0.0906-0.08827 0.20437-0.08827 0.25287s-0.02896 0.19298-0.06435 0.32106c-0.03539 0.12807-0.09793 0.38733-0.13897 0.57612-0.09882 0.45456-0.16292 0.69239-0.21232 0.78771-0.02232 0.0431-0.06491 0.22565-0.09466 0.40575-0.03079 0.18644-0.08743 0.35966-0.13154 0.40226-0.07414 0.0716-0.1241 0.25646-0.16212 0.59981-0.0097 0.0874-0.05929 0.21525-0.11026 0.28419-0.05097 0.0689-0.09267 0.17646-0.09267 0.23892 0 0.0625-0.0206 0.1263-0.04577 0.14186-0.02517 0.0156-0.04577 0.11532-0.04577 0.22169 0 0.19075-0.14809 0.68677-0.23738 0.79511-0.02523 0.0306-0.03646 0.0821-0.02495 0.11442 0.01151 0.0323-0.0044 0.11024-0.03533 0.17317-0.03094 0.0629-0.07055 0.1968-0.08802 0.29749-0.03843 0.22149-0.12167 0.48267-0.17869 0.56066-0.02628 0.0359-0.02154 0.0816 0.01271 0.12293 0.0368 0.0444 0.04035 0.0927 0.01092 0.14875-0.024 0.0457-0.05793 0.16937-0.0754 0.2749-0.01748 0.10553-0.06106 0.21618-0.09685 0.24589-0.03579 0.0297-0.06507 0.12421-0.06507 0.21002 0 0.0956-0.02626 0.1661-0.06781 0.18205-0.04892 0.0188-0.0559 0.0483-0.02506 0.1059 0.02959 0.0553 0.02134 0.11046-0.02681 0.17919-0.03825 0.0546-0.0697 0.16593-0.06987 0.24736-5.19e-4 0.14933-0.07416 0.35244-0.14752 0.40577-0.02197 0.016-0.01893 0.066 0.0068 0.11201 0.03481 0.0622 0.02018 0.14269-0.05813 0.31978-0.06196 0.14009-0.09526 0.2858-0.08163 0.35711 0.01266 0.0663 0.0052 0.12115-0.01663 0.12199-0.02181 7.8e-4 -0.08689 0.0409-0.1446 0.089-0.09044 0.0754-0.097 0.10021-0.04745 0.17955 0.04726 0.0757 0.0435 0.13107-0.02115 0.31145-0.04325 0.12067-0.07854 0.26594-0.07841 0.32282 0 0.0569-0.04097 0.1387-0.09131 0.1818s-0.09154 0.11397-0.09154 0.15747-0.03323 0.0977-0.07386 0.12042c-0.06104 0.0342-0.06438 0.059-0.01926 0.14333 0.04404 0.0823 0.04175 0.11233-0.01184 0.15546-0.09157 0.0737-0.13066 0.26475-0.0693 0.33868 0.03741 0.0451 0.03549 0.0897-0.0073 0.16965-0.03194 0.0597-0.04519 0.12933-0.02946 0.15479 0.01573 0.0255 0.0046 0.10466-0.02483 0.17599-0.02939 0.0713-0.04845 0.15882-0.04237 0.1944 0.0061 0.0356-0.0086 0.10767-0.03258 0.16019-0.02401 0.0525-0.09895 0.21503-0.16654 0.36113-0.08658 0.18716-0.12402 0.34532-0.12671 0.53535-0.0025 0.1745-0.02459 0.27768-0.06265 0.29229-0.03734 0.0143-0.07092 0.16127-0.09195 0.40238-0.02984 0.34204-0.04676 0.39254-0.17013 0.50779-0.13169 0.12301-0.13364 0.13046-0.05034 0.19223 0.07173 0.0532 0.0773 0.0796 0.03234 0.15331-0.02987 0.049-0.04505 0.12747-0.03373 0.17442 0.01131 0.0469 4.54e-4 0.11626-0.02439 0.15402-0.03705 0.0566-0.06121 0.0586-0.13728 0.0114-0.13596-0.0843-0.17822-0.0677-0.06086 0.0239 0.09641 0.0752 0.09904 0.0947 0.054 0.39946-0.02604 0.1762-0.06877 0.38216-0.09495 0.45768-0.02619 0.0755-0.07373 0.26604-0.10564 0.4234-0.03192 0.15735-0.08149 0.31436-0.11016 0.3489-0.02866 0.0345-0.03933 0.0961-0.0237 0.13687 0.01759 0.0459-4.54e-4 0.0851-0.04694 0.10298-0.05994 0.023-0.06964 0.0676-0.0474 0.21779 0.02309 0.15598 0.0034 0.2347-0.11298 0.45214-0.11621 0.21708-0.13582 0.29535-0.11173 0.446 0.01607 0.10048 0.0093 0.20856-0.01501 0.24016-0.02433 0.0316-0.04557 0.13727-0.04721 0.23482-0.0017 0.10256-0.04225 0.23048-0.09608 0.30329-0.05682 0.0768-0.08317 0.16389-0.06762 0.22335 0.01401 0.0536 0.0055 0.12306-0.01884 0.15439-0.02438 0.0313-0.07055 0.18447-0.10262 0.3403-0.03244 0.15769-0.0871 0.29439-0.12324 0.30826-0.04689 0.018-0.05283 0.0476-0.02137 0.10633 0.03014 0.0563 0.02139 0.13059-0.02839 0.24096-0.15481 0.3432-0.18114 0.44617-0.13513 0.52839 0.03066 0.0548 0.02841 0.10754-7e-3 0.16425-0.02869 0.0459-0.05217 0.11471-0.05217 0.15281s-0.02137 0.0693-0.0475 0.0693-0.04157 0.0566-0.03433 0.12587c0.01007 0.0962-0.0057 0.12436-0.06692 0.1195-0.0917-7e-3 -0.10878 0.0576-0.02288 0.0869 0.04159 0.0142 0.0291 0.0701-0.04577 0.20456-0.06779 0.12179-0.10298 0.262-0.10298 0.41031 0 0.12725-0.02925 0.26397-0.0672 0.31415-0.03696 0.0489-0.06785 0.12516-0.06865 0.16955-7.79e-4 0.0444-0.02527 0.12678-0.05437 0.18308-0.12261 0.23718-0.13322 0.27234-0.10703 0.35485 0.01511 0.0476-0.0053 0.13667-0.04544 0.19789-0.04011 0.0612-0.07854 0.20787-0.08539 0.32591-0.0069 0.11804-0.03912 0.23108-0.0717 0.25122-0.03568 0.0221-0.04731 0.0742-0.02925 0.13107 0.0216 0.068 0.0037 0.10855-0.06417 0.14484-0.06925 0.0371-0.087 0.0788-0.06714 0.15799 0.01485 0.0592 0.0056 0.1208-0.02047 0.13693-0.02611 0.0161-0.03743 0.0555-0.02516 0.0875 0.02691 0.0701-0.10306 0.39659-0.15789 0.39659-0.02135 0-0.02897 0.0515-0.01694 0.11442 0.01653 0.0865 0.0025 0.11442-0.05745 0.11442-0.06098 0-0.07212 0.0238-0.04817 0.10297 0.05509 0.18211 0.04977 0.22681-0.03192 0.26828-0.04405 0.0224-0.11614 0.0584-0.16019 0.08-0.10755 0.0528-0.10704 0.21695 5.96e-4 0.19882 0.09892-0.0166 0.14493 0.0891 0.10608 0.24392-0.02057 0.082-0.0692 0.12374-0.16675 0.14325-0.12242 0.0245-0.13051 0.0358-0.07289 0.10159 0.0564 0.0644 0.04859 0.12455-0.06019 0.46307-0.08031 0.24994-0.15105 0.39414-0.19785 0.40332-0.07726 0.0152-0.19955 0.47246-0.14844 0.55514 0.01509 0.0244-0.02213 0.0769-0.08273 0.11662-0.08203 0.0537-0.11783 0.12979-0.14009 0.29762-0.01645 0.12398-0.05089 0.23839-0.07653 0.25424-0.02565 0.0159-0.04327 0.063-0.03917 0.10486 0.0246 0.2507-0.01241 0.42336-0.1175 0.54826-0.06293 0.0748-0.11442 0.17439-0.11442 0.22134 0 0.047-0.04276 0.11206-0.09501 0.1447-0.07742 0.0483-0.08462 0.0719-0.03887 0.12699 0.04129 0.0497 0.04322 0.0945 0.0073 0.16907-0.02687 0.0558-0.05906 0.14261-0.07155 0.19295-0.05309 0.21407-0.22672 0.64633-0.28641 0.71301-0.03557 0.0397-0.06467 0.11554-0.06467 0.16846 0 0.12596-0.18358 0.41186-0.28746 0.44766-0.06397 0.0221-0.07559 0.0596-0.054 0.17474 0.0212 0.11299 0.0058 0.1663-0.06705 0.23224-0.11077 0.10025-0.32378 0.54568-0.32378 0.67708 0 0.05-0.05149 0.15203-0.11442 0.22682-0.06293 0.0748-0.11442 0.18311-0.11442 0.24072 0 0.14419-0.16856 0.34586-0.28937 0.3462-0.06263 0-0.12863 0.0512-0.17762 0.13731-0.04556 0.0801-0.11577 0.13701-0.16893 0.13701-0.05003 0-0.10369 0.0206-0.11925 0.0458-0.04482 0.0725-0.20596 0.0533-0.20596-0.0245zm4.1191-10.388c0-0.0377-0.0206-0.0686-0.04577-0.0686s-0.04577 0.0309-0.04577 0.0686c0 0.0378 0.0206 0.0687 0.04577 0.0687s0.04577-0.0309 0.04577-0.0687zm7.7348-27.118c0-0.0252 0.0206-0.0458 0.04577-0.0458s0.04577 0.0206 0.04577 0.0458-0.0206 0.0458-0.04577 0.0458-0.04577-0.0206-0.04577-0.0458z" fill="#965a5a"/>
 </g>
</svg>
